<?xml version="1.0" encoding="UTF-8" standalone="no"?>
<!-- Created with Inkscape (http://www.inkscape.org/) -->

<svg
   xmlns:dc="http://purl.org/dc/elements/1.1/"
   xmlns:cc="http://creativecommons.org/ns#"
   xmlns:rdf="http://www.w3.org/1999/02/22-rdf-syntax-ns#"
   xmlns:svg="http://www.w3.org/2000/svg"
   xmlns="http://www.w3.org/2000/svg"
   xmlns:sodipodi="http://sodipodi.sourceforge.net/DTD/sodipodi-0.dtd"
   xmlns:inkscape="http://www.inkscape.org/namespaces/inkscape"
   width="297mm"
   height="210mm"
   viewBox="0 0 297 210"
   version="1.1"
   id="svg8"
   sodipodi:docname="farm-light-box.svg"
   inkscape:version="0.92.4 5da689c313, 2019-01-14">
  <defs
     id="defs2" />
  <sodipodi:namedview
     id="base"
     pagecolor="#ffffff"
     bordercolor="#666666"
     borderopacity="1.0"
     inkscape:pageopacity="0.0"
     inkscape:pageshadow="2"
     inkscape:zoom="1.8531019"
     inkscape:cx="-1128.0381"
     inkscape:cy="1060.777"
     inkscape:document-units="mm"
     inkscape:current-layer="layer1"
     showgrid="false"
     inkscape:window-width="1916"
     inkscape:window-height="1036"
     inkscape:window-x="0"
     inkscape:window-y="20"
     inkscape:window-maximized="0"
     inkscape:lockguides="true"
     showguides="false" />
  <metadata
     id="metadata5">
    <rdf:RDF>
      <cc:Work
         rdf:about="">
        <dc:format>image/svg+xml</dc:format>
        <dc:type
           rdf:resource="http://purl.org/dc/dcmitype/StillImage" />
        <dc:title></dc:title>
      </cc:Work>
    </rdf:RDF>
  </metadata>
  <g
     inkscape:label="Layer 1"
     inkscape:groupmode="layer"
     id="layer1"
     transform="translate(0,-87)">
    <path
       style="fill:#f2f2f2;stroke:#4d4d4d;stroke-width:0.1;stroke-miterlimit:4;stroke-dasharray:none"
       d="m 212.89137,173.14162 c -4.60399,-0.18085 -8.101,3.62523 -9.94035,6.20364 -1.40489,4.35045 -5.34327,11.0377 -9.74631,9.91573 -4.04006,-1.60787 -7.2839,-10.70895 -12.72222,-7.48377 -2.76463,1.10421 -4.50814,2.68015 -5.98671,5.61257 -1.44929,1.79636 -2.24172,5.31011 -3.74189,7.10965 -1.11904,3.87593 -4.52517,7.15869 -5.61258,11.22515 -2.06766,3.36594 -2.37642,4.23493 -3.74189,7.48378 -2.55343,4.73518 -3.13993,11.27982 -6.36085,14.96705 -1.87492,1.06138 -3.35662,4.68909 -6.04114,5.23844 -52.491514,0 -104.983028,0 -157.474542,0 0,37.04358 0,74.08715 0,111.13073 112.772812,0 225.545622,0 338.318432,0 0,-37.04356 0,-74.08712 0,-111.13068 -29.83443,0 -59.66887,0 -89.5033,0 -5.17216,-5.99723 -5.75095,-14.37698 -6.34793,-22.07669 -1.83017,-6.3392 -1.4303,-13.08387 -4.11603,-18.70894 -1.40385,-5.38742 -3.01886,-9.96129 -5.23844,-14.96704 -1.97929,-4.00066 -6.08983,-5.00701 -11.74425,-4.51962 z"
       id="rect964"
       inkscape:connector-curvature="0" />
    <path
       style="fill:#ececec;stroke:#4d4d4d;stroke-width:0.1;stroke-miterlimit:4;stroke-dasharray:none"
       d="m 80.281429,185.88385 c -3.337687,0.46103 -7.016774,2.13227 -8.431527,5.26224 -2.588353,2.32468 -3.909012,5.86298 -7.109642,8.23206 -3.706427,5.46459 -9.585856,9.96107 -15.341182,13.84463 -5.196528,2.4044 -10.955203,3.6219 -17.006987,2.99362 -23.142682,0 -46.285365,0 -69.428047,0 0,40.19702 0,80.39403 0,120.59105 119.069733,0 238.139466,0 357.209196,0 0,-40.19703 0,-80.39405 0,-120.59108 -41.98917,0 -83.97833,0 -125.9675,0 -3.97433,-1.91552 -7.03024,-2.21649 -11.97394,-2.61948 -3.13103,-1.48706 -6.81931,-2.02132 -8.60568,-4.11603 -2.91928,-2.85625 -7.32259,-4.1009 -9.72861,-7.10913 -3.39488,-2.79678 -6.12581,-4.69127 -9.7286,-7.48377 -1.9541,-2.54093 -4.81588,-3.84921 -7.85792,-5.23844 -3.11626,-2.573 -8.9303,-3.68394 -12.72222,-1.12242 -4.28255,1.02295 -8.08974,2.42596 -11.59929,4.11603 -3.47902,2.19982 -9.20036,3.71671 -13.84463,2.24483 -4.44953,-0.91322 -7.72049,-4.57935 -11.599298,-5.2384 -5.291223,-1.45808 -10.454087,-3.29424 -16.264123,-3.76571 z"
       id="rect979"
       inkscape:connector-curvature="0" />
    <rect
       style="fill:#cccccc;stroke:none;stroke-width:6;stroke-linecap:round;stroke-miterlimit:4;stroke-dasharray:none;stroke-dashoffset:0;paint-order:normal"
       id="rect1235"
       width="326.96304"
       height="64.535934"
       x="-15.991206"
       y="252.16753" />
    <path
       style="color:#000000;font-style:normal;font-variant:normal;font-weight:normal;font-stretch:normal;font-size:medium;line-height:normal;font-family:sans-serif;font-variant-ligatures:normal;font-variant-position:normal;font-variant-caps:normal;font-variant-numeric:normal;font-variant-alternates:normal;font-feature-settings:normal;text-indent:0;text-align:start;text-decoration:none;text-decoration-line:none;text-decoration-style:solid;text-decoration-color:#000000;letter-spacing:normal;word-spacing:normal;text-transform:none;writing-mode:lr-tb;direction:ltr;text-orientation:mixed;dominant-baseline:auto;baseline-shift:baseline;text-anchor:start;white-space:normal;shape-padding:0;clip-rule:nonzero;display:inline;overflow:visible;visibility:visible;opacity:1;isolation:auto;mix-blend-mode:normal;color-interpolation:sRGB;color-interpolation-filters:linearRGB;solid-color:#000000;solid-opacity:1;vector-effect:none;fill:#999999;fill-opacity:1;fill-rule:nonzero;stroke:none;stroke-width:10;stroke-linecap:round;stroke-linejoin:miter;stroke-miterlimit:4;stroke-dasharray:none;stroke-dashoffset:0;stroke-opacity:1;paint-order:normal;color-rendering:auto;image-rendering:auto;shape-rendering:auto;text-rendering:auto;enable-background:accumulate"
       d="m 256.5838,84.837689 c -3.5669,2.484619 -9.48235,3.705229 -11.67727,6.928124 1.93859,17.995147 4.22824,35.970587 3.60234,54.109697 0.0427,8.86328 -0.071,17.73396 1.06084,26.45229 -0.20583,10.0381 -0.34122,20.03972 1.29915,30.02148 -0.62104,14.96182 1.97575,29.54351 1.91541,44.42908 -1.26843,10.72573 -5.33595,20.96374 -7.25005,31.67878 -0.30518,5.64818 -2.5782,10.66543 -5.39752,15.36072 7.09666,8.99506 4.18236,24.31894 11.17349,33.55398 10.28527,-2.42628 20.66318,-10.01752 27.42224,-18.22146 2.61274,-4.78875 6.47948,-8.55031 10.46557,-12.2983 -2.93064,-19.31706 -7.1973,-38.49599 -9.26035,-57.90276 -0.41803,-10.85449 -0.83607,-21.70898 -1.2541,-32.56347 4.11801,-3.54359 6.40847,-10.27063 12.56906,-10.2562 12.71978,-7.4129 27.0846,3.83666 38.94482,-1.64032 -8.06828,-10.63872 -25.45482,-10.12241 -37.48561,-6.80952 -7.91288,3.12417 -8.61671,0.62415 -3.38423,-4.85683 8.68046,-11.9567 16.76115,-24.32741 25.02681,-36.57044 -6.55403,1.81866 -10.18029,8.76295 -15.44881,12.83214 -9.75952,11.02599 -19.27707,22.42402 -28.1993,34.12757 -3.62505,-5.43264 -5.50601,-22.84113 -5.76352,-32.92543 2.54374,-12.1865 18.8746,-14.23438 27.4842,-21.31525 6.17197,-6.66627 13.94716,-13.57435 14.50536,-23.18733 -8.56598,-6.81108 -6.27511,8.15607 -11.93931,11.61319 -7.28641,10.16879 -19.48346,13.37185 -29.96352,19.14139 -5.32327,3.92247 -1.61021,-6.39812 -3.40095,-9.56222 -1.68125,-17.37929 -3.36516,-34.76136 -5.04475,-52.138911 z m -2.13062,1.45676 c -0.001,0.01984 -1.9e-4,-0.0046 0,0 z m -7.17648,200.860881 0.21459,0.14407 -0.21459,-0.1441 z m -6.02548,7.65067 c -0.0202,0.0717 0.15761,0.1962 0,0 z m 2.14458,2.76365 c -0.18824,1.75326 3.70349,0.28086 0,0 z"
       id="path1203"
       inkscape:connector-curvature="0" />
    <path
       style="color:#000000;font-style:normal;font-variant:normal;font-weight:normal;font-stretch:normal;font-size:medium;line-height:normal;font-family:sans-serif;font-variant-ligatures:normal;font-variant-position:normal;font-variant-caps:normal;font-variant-numeric:normal;font-variant-alternates:normal;font-feature-settings:normal;text-indent:0;text-align:start;text-decoration:none;text-decoration-line:none;text-decoration-style:solid;text-decoration-color:#000000;letter-spacing:normal;word-spacing:normal;text-transform:none;writing-mode:lr-tb;direction:ltr;text-orientation:mixed;dominant-baseline:auto;baseline-shift:baseline;text-anchor:start;white-space:normal;shape-padding:0;clip-rule:nonzero;display:inline;overflow:visible;visibility:visible;opacity:1;isolation:auto;mix-blend-mode:normal;color-interpolation:sRGB;color-interpolation-filters:linearRGB;solid-color:#000000;solid-opacity:1;vector-effect:none;fill:#999999;fill-opacity:1;fill-rule:nonzero;stroke:none;stroke-width:12;stroke-linecap:round;stroke-linejoin:miter;stroke-miterlimit:4;stroke-dasharray:none;stroke-dashoffset:0;stroke-opacity:1;color-rendering:auto;image-rendering:auto;shape-rendering:auto;text-rendering:auto;enable-background:accumulate"
       d="m 43.019596,152.27302 c -1.276332,10.16292 -0.949047,20.41345 -3.069524,30.4617 C 25.850957,171.7115 18.36803,153.68297 3.9638901,143.48094 c -5.5278365,-2.5981 0.5505511,6.75214 2.5777655,8.42077 5.6205804,4.94003 7.4568144,12.27655 11.9987704,18.02694 3.617092,7.88317 9.678534,14.96028 12.740682,23.05702 -1.003332,23.33997 1.668068,46.86028 -1.565916,70.16375 2.257708,11.67793 -15.004445,34.63389 5.706613,31.95934 8.454152,2.74329 23.878698,2.64834 20.009453,-9.82991 1.097746,-6.24286 -4.211653,-12.99414 -2.659779,-18.21284 1.083265,-6.80711 -3.09094,-13.18916 -2.619479,-20.58014 -1.340085,-11.06186 -0.428609,-22.11595 -0.752922,-33.26309 2.230895,-18.78378 3.798105,-37.929 5.300451,-56.90082 2.07486,-8.56059 -1.382051,-17.43023 1.24455,-25.59461 6.792674,-9.69749 8.843377,-21.56245 15.811716,-31.172698 5.116489,-7.687864 12.587912,-16.935342 -0.0048,-10.269693 -5.341646,0.867506 -5.31582,8.08388 -8.170158,11.893481 -3.430797,8.43395 -9.10463,15.60558 -13.909368,23.26631 -4.153755,-10.92392 -6.779168,-22.84598 -12.831776,-32.616612 -5.516523,-7.295379 -8.589804,0.954735 -2.915489,7.253311 6.221857,16.954641 11.121441,34.969011 9.095378,53.191571 z M 36.866999,92.622912 c 0.510741,2.265187 0.135361,3.871116 0.02374,0.100688 z m 0.390676,4.471045 c 0.02492,-0.0083 0.08885,0.03821 0,0 z m 12.970782,171.488243 0.787032,0.54467 z m 0.748276,2.61896 0.787032,0.54518 z m 0.09508,3.93723 c 0.154647,-0.0444 0.787035,0.43402 0,0 z m 2.511992,1.52548 c 0.05384,-0.0209 0.179583,0.19719 0,0 z m 0.384989,0.46509 c 0.595556,-0.007 0.757585,2.28188 0,0 z m 0.546738,0.74414 c 0.482283,0.71475 0.01699,0.54591 0,0 z m 0.148312,1.24024 -0.09147,0.65215 z m 0.375169,1.12293 -0.09198,0.65215 z m -2.310453,1.98437 c -5.449231,1.52737 -28.389156,7.95724 -12.358256,3.46391 4.119417,-1.15463 8.238837,-2.30927 12.358256,-3.46391 z m 2.644283,3.56618 c -0.02347,1.07166 -0.0027,0.1065 0,0 z m -29.333609,4.26021 0.0057,-0.014 z m 29.675707,0.64802 -0.11317,0.98081 z m -1.044898,0.0336 c -0.144467,0.24155 -0.852471,0.9954 0,0 z m -29.000295,0.35708 c -0.723618,2.45377 0.114081,4.56055 0,0 z m 28.363642,0.37724 c -0.50723,0.72794 -2.825922,1.84782 0,0 z m -1.680001,1.156 c -5.410459,0.45276 -28.187163,2.35876 -12.270327,1.02681 4.090109,-0.34227 8.180218,-0.68454 12.270327,-1.02681 z m -20.671605,5.78364 -0.0801,-0.008 z m -3.746542,0.30953 c 4.903356,0.57654 1.358273,0.60723 0,0 z"
       id="path1162"
       inkscape:connector-curvature="0" />
    <path
       style="color:#000000;font-style:normal;font-variant:normal;font-weight:normal;font-stretch:normal;font-size:medium;line-height:normal;font-family:sans-serif;font-variant-ligatures:normal;font-variant-position:normal;font-variant-caps:normal;font-variant-numeric:normal;font-variant-alternates:normal;font-feature-settings:normal;text-indent:0;text-align:start;text-decoration:none;text-decoration-line:none;text-decoration-style:solid;text-decoration-color:#000000;letter-spacing:normal;word-spacing:normal;text-transform:none;writing-mode:lr-tb;direction:ltr;text-orientation:mixed;dominant-baseline:auto;baseline-shift:baseline;text-anchor:start;white-space:normal;shape-padding:0;clip-rule:nonzero;display:inline;overflow:visible;visibility:visible;opacity:1;isolation:auto;mix-blend-mode:normal;color-interpolation:sRGB;color-interpolation-filters:linearRGB;solid-color:#000000;solid-opacity:1;vector-effect:none;fill:#666666;fill-opacity:1;fill-rule:nonzero;stroke:#666666;stroke-width:2.75030994;stroke-linecap:butt;stroke-linejoin:miter;stroke-miterlimit:4;stroke-dasharray:none;stroke-dashoffset:0;stroke-opacity:1;color-rendering:auto;image-rendering:auto;shape-rendering:auto;text-rendering:auto;enable-background:accumulate"
       d="m 149.80013,233.41386 0.10169,1.81058 c -0.0804,0.3795 44.48106,-0.0367 44.40092,0.34266 -3.19015,15.10387 -6.13842,30.1559 -9.11916,45.2388 h 0.005 l -2.84731,10.85541 2.49695,-0.005 2.65627,-10.85087 h 48.53806 l 2.58438,10.85087 2.56885,0.005 -2.84733,-10.85541 h 0.005 l -8.13523,-42.22691 h -0.005 l -0.81352,-3.12088 40.67532,-0.15359 0.0516,-1.89066 z m 47.04963,2.07607 h 29.82703 l 0.81352,3.08906 h -31.45407 z m -1.22028,5.21232 h 32.26759 l 8.13522,37.9804 h -48.53803 z"
       id="rect986-5"
       inkscape:connector-curvature="0"
       sodipodi:nodetypes="ccccccccccccccccccccccccccccc" />
    <g
       id="g960"
       transform="translate(53.008331,-2.1166687)">
      <path
         style="color:#000000;font-style:normal;font-variant:normal;font-weight:normal;font-stretch:normal;font-size:medium;line-height:normal;font-family:sans-serif;font-variant-ligatures:normal;font-variant-position:normal;font-variant-caps:normal;font-variant-numeric:normal;font-variant-alternates:normal;font-feature-settings:normal;text-indent:0;text-align:start;text-decoration:none;text-decoration-line:none;text-decoration-style:solid;text-decoration-color:#000000;letter-spacing:normal;word-spacing:normal;text-transform:none;writing-mode:lr-tb;direction:ltr;text-orientation:mixed;dominant-baseline:auto;baseline-shift:baseline;text-anchor:start;white-space:normal;shape-padding:0;clip-rule:nonzero;display:inline;overflow:visible;visibility:visible;opacity:1;isolation:auto;mix-blend-mode:normal;color-interpolation:sRGB;color-interpolation-filters:linearRGB;solid-color:#000000;solid-opacity:1;vector-effect:none;fill:#4d4d4d;fill-opacity:1;fill-rule:nonzero;stroke:none;stroke-width:15;stroke-linecap:butt;stroke-linejoin:miter;stroke-miterlimit:4;stroke-dasharray:none;stroke-dashoffset:0;stroke-opacity:1;color-rendering:auto;image-rendering:auto;shape-rendering:auto;text-rendering:auto;enable-background:accumulate"
         d="M -53.008333,89.310025 V 299.11666 h 15 V 89.310025 Z"
         id="path935"
         inkscape:connector-curvature="0" />
      <rect
         style="fill:#4d4d4d;stroke:none;stroke-width:0.08402736;stroke-miterlimit:4;stroke-dasharray:none"
         id="rect937"
         width="19.259859"
         height="12.561736"
         x="-53.008331"
         y="89.310028" />
      <rect
         style="fill:#4d4d4d;stroke:none;stroke-width:0.08402736;stroke-miterlimit:4;stroke-dasharray:none"
         id="rect939"
         width="19.259859"
         height="12.561736"
         x="-53.008331"
         y="286.55493" />
    </g>
    <path
       style="color:#000000;font-style:normal;font-variant:normal;font-weight:normal;font-stretch:normal;font-size:medium;line-height:normal;font-family:sans-serif;font-variant-ligatures:normal;font-variant-position:normal;font-variant-caps:normal;font-variant-numeric:normal;font-variant-alternates:normal;font-feature-settings:normal;text-indent:0;text-align:start;text-decoration:none;text-decoration-line:none;text-decoration-style:solid;text-decoration-color:#000000;letter-spacing:normal;word-spacing:normal;text-transform:none;writing-mode:lr-tb;direction:ltr;text-orientation:mixed;dominant-baseline:auto;baseline-shift:baseline;text-anchor:start;white-space:normal;shape-padding:0;clip-rule:nonzero;display:inline;overflow:visible;visibility:visible;opacity:1;isolation:auto;mix-blend-mode:normal;color-interpolation:sRGB;color-interpolation-filters:linearRGB;solid-color:#000000;solid-opacity:1;vector-effect:none;fill:#000000;fill-opacity:1;fill-rule:nonzero;stroke:none;stroke-width:10;stroke-linecap:butt;stroke-linejoin:miter;stroke-miterlimit:4;stroke-dasharray:none;stroke-dashoffset:0;stroke-opacity:1;color-rendering:auto;image-rendering:auto;shape-rendering:auto;text-rendering:auto;enable-background:accumulate"
       d="m -57.916667,34.568359 v 5 315.348311 H 349.29492 V 34.568359 Z M 5,92.193359 H 291.66992 V 292 H 5 Z"
       id="rect815"
       inkscape:connector-curvature="0"
       sodipodi:nodetypes="ccccccccccc" />
    <path
       style="fill:none;stroke:#000000;stroke-width:0.24792583px;stroke-linecap:butt;stroke-linejoin:miter;stroke-opacity:1"
       d="M 212.72501,91.154176 V 129.25416"
       id="path1033"
       inkscape:connector-curvature="0" />
    <path
       style="fill:none;stroke:#000000;stroke-width:0.28177145px;stroke-linecap:butt;stroke-linejoin:miter;stroke-opacity:1"
       d="M 230.71665,87.979165 V 137.19166"
       id="path1033-3"
       inkscape:connector-curvature="0" />
    <path
       style="fill:none;stroke:#000000;stroke-width:0.23374672px;stroke-linecap:butt;stroke-linejoin:miter;stroke-opacity:1"
       d="M 222.24998,89.566666 V 123.43333"
       id="path1033-5"
       inkscape:connector-curvature="0" />
    <path
       style="fill:#666666;stroke:#666666;stroke-width:0;stroke-miterlimit:4;stroke-dasharray:none"
       d="m 212.74822,125.73148 c -2.47228,1.8e-4 -4.47614,2.85382 -4.47621,6.37377 7e-5,3.51996 2.00393,6.37359 4.47621,6.37377 2.47227,-1.8e-4 4.47668,-2.85381 4.47673,-6.37377 -5e-5,-3.51995 -2.00446,-6.37359 -4.47673,-6.37377 z m 0.10904,0.48007 c 0.64168,0.0315 1.26852,0.33208 1.82263,0.87488 1.2141,1.18882 1.51087,1.14175 1.89497,3.26234 l -7.65586,0.10438 c 0.275,-2.19668 0.63636,-2.09102 1.83865,-3.31297 0.63174,-0.64218 1.36089,-0.96466 2.09961,-0.92863 z m -2.44481,5.18573 0.4253,1.36788 -0.4253,1.36839 -0.4253,-1.36839 z m 2.97449,0.12868 0.4253,1.36787 -0.4253,1.3684 -0.42529,-1.3684 z m 1.77767,2.54868 0.4253,1.36839 -0.4253,1.36788 -0.42581,-1.36788 z m -3.32124,0.14056 0.42581,1.36787 -0.42581,1.3684 -0.4253,-1.3684 z"
       id="path1056"
       inkscape:connector-curvature="0" />
    <path
       inkscape:connector-curvature="0"
       style="fill:#666666;stroke:#666666;stroke-width:0;stroke-miterlimit:4;stroke-dasharray:none"
       d="m 230.51794,133.19914 c -2.47228,1.8e-4 -4.47614,2.85382 -4.47622,6.37377 8e-5,3.51996 2.00394,6.37359 4.47622,6.37377 2.47227,-1.8e-4 4.47667,-2.85381 4.47672,-6.37377 -5e-5,-3.51995 -2.00445,-6.37359 -4.47672,-6.37377 z m 0.10903,0.48007 c 0.64169,0.0315 1.26852,0.33207 1.82263,0.87488 1.2141,1.18882 1.51088,1.14174 1.89498,3.26234 l -7.65587,0.10438 c 0.275,-2.19668 0.63636,-2.09102 1.83865,-3.31297 0.63174,-0.64218 1.3609,-0.96466 2.09961,-0.92863 z m -2.44481,5.18573 0.4253,1.36787 -0.4253,1.3684 -0.4253,-1.3684 z m 2.9745,0.12867 0.4253,1.36788 -0.4253,1.36839 -0.4253,-1.36839 z m 1.77767,2.54869 0.42529,1.36839 -0.42529,1.36787 -0.42582,-1.36787 z m -3.32125,0.14056 0.42582,1.36787 -0.42582,1.36839 -0.42529,-1.36839 z"
       id="path1056-9" />
    <path
       inkscape:connector-curvature="0"
       style="fill:#666666;stroke:#666666;stroke-width:0;stroke-miterlimit:4;stroke-dasharray:none"
       d="m 222.03656,116.27098 c -2.47228,1.8e-4 -4.47614,2.85382 -4.47622,6.37377 8e-5,3.51996 2.00394,6.37359 4.47622,6.37377 2.47227,-1.8e-4 4.47667,-2.85381 4.47672,-6.37377 -5e-5,-3.51995 -2.00445,-6.37359 -4.47672,-6.37377 z m 0.10903,0.48007 c 0.64169,0.0315 1.26852,0.33207 1.82263,0.87488 1.2141,1.18882 1.51088,1.14174 1.89498,3.26234 l -7.65587,0.10438 c 0.275,-2.19668 0.63636,-2.09102 1.83865,-3.31297 0.63174,-0.64218 1.3609,-0.96466 2.09961,-0.92863 z m -2.44481,5.18573 0.4253,1.36787 -0.4253,1.3684 -0.4253,-1.3684 z m 2.9745,0.12867 0.4253,1.36788 -0.4253,1.36839 -0.4253,-1.36839 z m 1.77767,2.54869 0.42529,1.36839 -0.42529,1.36787 -0.42582,-1.36787 z m -3.32125,0.14056 0.42582,1.36787 -0.42582,1.36839 -0.42529,-1.36839 z"
       id="path1056-3" />
    <path
       style="color:#000000;font-style:normal;font-variant:normal;font-weight:normal;font-stretch:normal;font-size:medium;line-height:normal;font-family:sans-serif;font-variant-ligatures:normal;font-variant-position:normal;font-variant-caps:normal;font-variant-numeric:normal;font-variant-alternates:normal;font-feature-settings:normal;text-indent:0;text-align:start;text-decoration:none;text-decoration-line:none;text-decoration-style:solid;text-decoration-color:#000000;letter-spacing:normal;word-spacing:normal;text-transform:none;writing-mode:lr-tb;direction:ltr;text-orientation:mixed;dominant-baseline:auto;baseline-shift:baseline;text-anchor:start;white-space:normal;shape-padding:0;clip-rule:nonzero;display:inline;overflow:visible;visibility:visible;opacity:1;isolation:auto;mix-blend-mode:normal;color-interpolation:sRGB;color-interpolation-filters:linearRGB;solid-color:#000000;solid-opacity:1;vector-effect:none;fill:#000000;fill-opacity:1;fill-rule:nonzero;stroke:none;stroke-width:7.56500006;stroke-linecap:butt;stroke-linejoin:miter;stroke-miterlimit:4;stroke-dasharray:none;stroke-dashoffset:0;stroke-opacity:1;color-rendering:auto;image-rendering:auto;shape-rendering:auto;text-rendering:auto;enable-background:accumulate"
       d="m -236.46561,-104.04429 c -2.46536,2.45593 -2.99621,6.377679 -4.98211,9.429224 -2.29902,4.708685 -5.1056,9.37115 -5.85979,14.463345 -0.92308,7.150951 -4.94386,13.133245 -9.27703,19.028918 -3.94386,6.140698 -11.44832,9.115101 -15.25814,15.66127 -3.10339,3.18815 -7.79056,14.218419 -9.62739,6.695433 -6.08581,-18.305361 -12.13118,-33.255467 -19.69262,-49.181184 -2.02649,-4.821332 -5.47456,-9.289817 -9.9344,-12.315186 -10.33392,7.377519 15.37656,43.170432 19.54101,56.180228 2.29395,5.19427 0.76404,11.975638 7.05125,14.328955 -0.0943,11.870702 -6.14239,23.7247294 -9.08676,34.3158783 -1.40742,0.447945 -4.52565,-9.48109 -6.82216,-12.635454 -2.7776,-6.8747933 -8.12137,-12.0514463 -12.06177,-18.1823773 -6.53638,-7.177794 -13.82541,-13.623167 -22.2356,-18.544502 -7.54863,-1.92432 -5.64026,-9.097508 -7.52472,-14.855903 -3.82445,-10.64284 -2.71604,-31.368932 -9.79607,-36.389926 -9.82862,2.338807 0.14461,25.729081 1.03199,32.692065 2.4572,3.230159 -0.88973,11.569684 5.55562,9.727657 6.3173,-2.003084 3.06362,5.154079 -0.50309,1.24259 -3.98521,-0.788131 -11.38453,-9.227059 -13.49949,-3.680543 -2.95487,5.399539 0.86139,5.506535 4.79318,7.888638 7.40542,3.436335 13.63845,8.727512 20.64225,12.941084 3.42188,2.277198 8.54635,4.747387 1.85775,5.437824 -7.95697,1.016131 -15.78037,4.728717 -23.08203,7.869104 -2.70123,-2.339256 -11.06082,4.377395 -3.73633,7.519537 4.79747,1.591159 12.14155,-3.1961 18.44499,-5.451276 6.39859,-1.575794 12.10812,-3.497172 18.28139,-4.061043 6.39545,3.35136 10.55334,11.89595 14.5272,18.2505983 4.04851,7.724161 8.22561,15.529896 9.36427,24.3189077 -0.26193,3.702843 4.70322,12.029891 3.97718,17.92665 1.07877,6.800863 1.64063,12.750649 2.57908,19.280527 1.60258,4.95954 -0.34524,11.77727 4.39693,15.26052 9.08037,1.24664 4.04836,-9.67706 3.20458,-13.93696 -0.11953,-6.602197 -1.69687,-12.102493 -2.08653,-18.394749 0.98221,-7.136638 -4.84071,-14.268795 -2.06388,-20.761241 1.05072,-6.582556 1.98115,-14.2213857 5.07465,-20.7557087 3.57993,-12.7642843 8.21627,-24.8819333 15.11537,-35.0131873 3.77487,-5.678096 8.60842,-10.546668 14.3902,-14.13376 4.2461,-4.072043 9.01325,-6.894158 12.92187,-11.306641 3.6636,-3.277451 11.28714,-16.276134 18.4922,-18.450929 8.16909,-6.360998 -10.06709,-1.669717 -14.55079,3.864991 -2.27622,2.516303 -5.38694,5.322609 -3.02734,0.183594 1.05882,-6.582129 4.79126,-12.344449 7.61718,-18.447209 2.58184,-2.82298 3.92958,-8.850939 -1.73474,-6.978509 -0.78253,-0.34393 -4.82759,0.88571 -2.41736,-1.03125 z m 5.53125,3.47656 0.0488,0.2793 z m -7.44922,1.292969 0.0488,0.27734 z m -65.97656,7.480466 -0.0879,0.626953 z m 58.37695,10.244141 -0.33398,0.232422 z m 4.45313,6.111328 -0.33203,0.232422 z m -102.73438,15.628906 c 0.75754,-0.335801 3.18755,2.751174 0,0 z m 93.91407,2.941407 c 0.35486,3.084208 -2.53864,2.515308 0,0 z m -97.6504,3.304687 c 1.67358,1.324522 2.0414,1.227802 0,0 z m 62.82032,20.4375 -0.0859,0.476563 z m 0.80859,2.017578 -0.0508,0.283203 z m -73.0293,9.326172 c 7.20344,1.576213 -1.80041,11.685299 0,3.14807 z m 66.9961,53.123047 c 0.80869,-0.0081 -0.77316,0.169648 0,0 z m 1.25,7.314453 c -0.0531,0.102671 -0.38882,0.04429 0,0 z m -2.17578,0.15625 c 0.37344,-0.01868 1.55851,0.148954 0,0 z m 5.4082,24.957035 c 3.51646,0.50328 -7.80143,4.60508 -1.02935,0.14322 z"
       id="path1263"
       inkscape:connector-curvature="0"
       sodipodi:nodetypes="cccccccccccccccccccccccccccccccccccccccccccccccccccccccccccccccccccccccccccccccccccc" />
    <path
       style="color:#000000;font-style:normal;font-variant:normal;font-weight:normal;font-stretch:normal;font-size:medium;line-height:normal;font-family:sans-serif;font-variant-ligatures:normal;font-variant-position:normal;font-variant-caps:normal;font-variant-numeric:normal;font-variant-alternates:normal;font-feature-settings:normal;text-indent:0;text-align:start;text-decoration:none;text-decoration-line:none;text-decoration-style:solid;text-decoration-color:#000000;letter-spacing:normal;word-spacing:normal;text-transform:none;writing-mode:lr-tb;direction:ltr;text-orientation:mixed;dominant-baseline:auto;baseline-shift:baseline;text-anchor:start;white-space:normal;shape-padding:0;clip-rule:nonzero;display:inline;overflow:visible;visibility:visible;opacity:1;isolation:auto;mix-blend-mode:normal;color-interpolation:sRGB;color-interpolation-filters:linearRGB;solid-color:#000000;solid-opacity:1;vector-effect:none;fill:#000000;fill-opacity:1;fill-rule:nonzero;stroke:none;stroke-width:7.56500006;stroke-linecap:butt;stroke-linejoin:miter;stroke-miterlimit:4;stroke-dasharray:none;stroke-dashoffset:0;stroke-opacity:1;color-rendering:auto;image-rendering:auto;shape-rendering:auto;text-rendering:auto;enable-background:accumulate"
       d="m -99.343807,-104.15991 -2.195733,11.99979 0.80874,11.691866 -2.46065,13.180835 c 0.80133,8.237283 -2.495,16.362762 -4.94355,23.873158 l -6.72248,-14.440607 -15.59785,-17.683949 -22.43693,-10.135479 10.29877,5.275836 18.1561,18.496036 7.24074,16.902243 6.1634,19.323504 c 1.86342,9.765626 4.96281,19.2543219 6.97707,28.9613737 -4.73314,-3.29000906 -9.65618,-5.9081881 -14.41049,-9.2164904 -5.71657,-3.8353206 -11.83961,-7.4194963 -17.3351,-11.8262873 -4.90677,-5.404943 -10.97428,-9.87134 -14.63194,-16.236082 l -5.51998,-22.129067 0.63603,13.789525 4.45967,14.973762 c 2.35715,4.301713 6.15135,7.226007 9.40481,10.90081 l 16.4329,12.8496771 c 4.66677,4.38015851 10.83916,7.1340371 16.18111,10.7886763 l 6.15809,4.7116706 c 2.689873,5.006324 5.16818,11.460583 6.311132,17.456211 1.192125,6.016564 2.691689,12.765526 -0.806042,18.226881 -1.36802,3.27442 0.333547,8.625387 -1.105358,10.353889 -1.807332,5.461727 10.569252,6.580558 8.373131,-1.165079 -0.79806,-3.331147 1.132803,-7.544642 1.63091,-11.292041 0.685369,-3.704937 1.238615,-5.581756 2.408121,-7.758774 -0.05173,-5.63326 3.673401,-10.321486 4.239379,-16.005037 2.949141,-5.822683 4.748083,-12.372864 8.914858,-17.5039523 2.565572,-6.2043283 6.730865,-11.3676958 8.014184,-18.1118327 1.87674,-7.141228 4.23986,-21.942794 4.918109,-29.295702 l 8.003954,-15.467634 4.484385,-22.671498 -5.928283,16.021195 -6.32796,12.014588 -1.950449,-18.095412 -2.692034,-12.367011 -1.017854,14.471901 0.09277,7.378189 -0.853051,13.881298 c -1.387837,7.451502 -2.314364,14.245728 -3.776015,21.741009 -1.376913,6.677864 -2.360293,13.889447 -6.250766,19.3899603 -2.208363,6.4610667 -7.003581,11.4450599 -9.033039,18.0702137 -2.65811,2.749923 -4.33084,12.466184 -5.258133,11.245278 -1.386663,-7.015887 -6.263605,-12.8968684 -6.303229,-20.2189052 -1.825744,-9.8128321 -5.173224,-19.3066538 -6.968534,-29.1528678 -0.94051,-3.398166 1.24756,-7.365188 2.29316,-11.131479 0.36769,-4.832866 2.881832,-9.558409 3.945497,-14.396537 2.580727,-6.574031 1.179441,-13.618641 2.624381,-20.342188 l -0.884701,-17.393179 c -0.285306,-6.122037 1.622909,-10.778465 -3.761254,-13.932285 z m 1.070737,161.682639 0.01172,-0.153077 z m -58.15097,-111.145717 0.0884,0.628901 z m 57.465223,5.128884 c 0.02567,0.02201 0.01024,0.164637 0,0 z m -3.238563,7.134966 c 1.16901,1.916597 0.66107,1.847882 0,0 z m -1.62109,8.941057 -0.33021,0.230476 z m 25.779307,31.64871411 c 0.672394,2.14585279 0.458314,2.13090389 0,0 z M -89.190421,47.213282 c 0.125486,0.921485 0.05365,0.253928 0,0 z m -6.805785,2.96106 c -0.293105,0.210849 -0.936104,0.704162 0,0 z m 1.902209,4.921147 c 4.288022,1.201613 3.263791,3.718674 -1.292506,2.832383 -3.788084,0.968367 -0.774239,-3.124266 1.292506,-2.832383 z m 1.953368,1.599385 -0.09198,0.04909 z m 2.211237,0.664559 0.0124,0.158647 z"
       id="path1265"
       inkscape:connector-curvature="0"
       sodipodi:nodetypes="cccccccccccccccccccccccccccccccccccccccccccccccccccccccccccccccccccccccccccccccccc" />
  </g>
</svg>
