<?xml version="1.0" encoding="UTF-8" standalone="no"?>
<!-- Created with Inkscape (http://www.inkscape.org/) -->

<svg
   xmlns:dc="http://purl.org/dc/elements/1.1/"
   xmlns:cc="http://creativecommons.org/ns#"
   xmlns:rdf="http://www.w3.org/1999/02/22-rdf-syntax-ns#"
   xmlns:svg="http://www.w3.org/2000/svg"
   xmlns="http://www.w3.org/2000/svg"
   xmlns:sodipodi="http://sodipodi.sourceforge.net/DTD/sodipodi-0.dtd"
   xmlns:inkscape="http://www.inkscape.org/namespaces/inkscape"
   width="210mm"
   height="297mm"
   viewBox="0 0 744.09448819 1052.3622047"
   id="svg2"
   version="1.1"
   inkscape:version="0.91 r13725"
   sodipodi:docname="volcano.svg">
  <defs
     id="defs4">
    <inkscape:path-effect
       effect="powerstroke"
       id="path-effect4315"
       is_visible="true"
       offset_points="0,11.844743 | 0.77573999,11.16059 | 3.9631434,20.904145"
       sort_points="true"
       interpolator_type="Linear"
       interpolator_beta="0.2"
       start_linecap_type="butt"
       linejoin_type="round"
       miter_limit="4"
       end_linecap_type="round" />
    <inkscape:path-effect
       effect="powerstroke"
       id="path-effect4313"
       is_visible="true"
       offset_points="0,11.738868 | 0.44416807,13.203766 | 2.9708908,18.188692"
       sort_points="true"
       interpolator_type="Linear"
       interpolator_beta="0.2"
       start_linecap_type="round"
       linejoin_type="round"
       miter_limit="4"
       end_linecap_type="square" />
    <inkscape:path-effect
       effect="powerstroke"
       id="path-effect4271"
       is_visible="true"
       offset_points="0.94185175,-90.552902 | 2.8660952,-32.251419 | 6,1"
       sort_points="true"
       interpolator_type="Linear"
       interpolator_beta="0.2"
       start_linecap_type="peak"
       linejoin_type="round"
       miter_limit="4"
       end_linecap_type="round" />
    <inkscape:path-effect
       effect="powerstroke"
       id="path-effect4237"
       is_visible="true"
       offset_points="0.084382996,34.854536 | 3.9894996,22.490314 | 8,1"
       sort_points="true"
       interpolator_type="Linear"
       interpolator_beta="0.2"
       start_linecap_type="butt"
       linejoin_type="round"
       miter_limit="4"
       end_linecap_type="round" />
    <inkscape:path-effect
       effect="powerstroke"
       id="path-effect4209"
       is_visible="true"
       offset_points="0.23189154,-17.25712 | 3.9604797,-59.191695 | 7.9355572,-7.2117856"
       sort_points="true"
       interpolator_type="Linear"
       interpolator_beta="0.2"
       start_linecap_type="peak"
       linejoin_type="round"
       miter_limit="4"
       end_linecap_type="butt" />
    <inkscape:path-effect
       effect="spiro"
       id="path-effect4195"
       is_visible="true" />
    <inkscape:path-effect
       effect="spiro"
       id="path-effect4191"
       is_visible="true" />
    <inkscape:path-effect
       effect="spiro"
       id="path-effect4187"
       is_visible="true" />
    <inkscape:path-effect
       effect="powerstroke"
       id="path-effect4157"
       is_visible="true"
       offset_points="0,1 | 0.5386792,-57.605281 | 1,1"
       sort_points="true"
       interpolator_type="Linear"
       interpolator_beta="0.2"
       start_linecap_type="round"
       linejoin_type="round"
       miter_limit="4"
       end_linecap_type="round" />
    <inkscape:path-effect
       effect="powerstroke"
       id="path-effect4155"
       is_visible="true"
       offset_points="0,1 | 0.6009964,-25.87712 | 1,1"
       sort_points="true"
       interpolator_type="Linear"
       interpolator_beta="0.2"
       start_linecap_type="round"
       linejoin_type="round"
       miter_limit="4"
       end_linecap_type="round" />
    <inkscape:path-effect
       effect="spiro"
       id="path-effect4153"
       is_visible="true" />
    <inkscape:path-effect
       effect="powerstroke"
       id="path-effect4157-6"
       is_visible="true"
       offset_points="0,1 | 0.5386792,-57.605281 | 1,1"
       sort_points="true"
       interpolator_type="Linear"
       interpolator_beta="0.2"
       start_linecap_type="round"
       linejoin_type="round"
       miter_limit="4"
       end_linecap_type="round" />
    <inkscape:path-effect
       effect="powerstroke"
       id="path-effect4209-5"
       is_visible="true"
       offset_points="0,-14.585069 | 4.0210592,-34.454612 | 8,-4.4727769"
       sort_points="true"
       interpolator_type="Linear"
       interpolator_beta="0.2"
       start_linecap_type="peak"
       linejoin_type="round"
       miter_limit="4"
       end_linecap_type="round" />
    <inkscape:path-effect
       effect="powerstroke"
       id="path-effect4237-5"
       is_visible="true"
       offset_points="0.032523791,16.956006 | 3.9910626,14.610806 | 8,1"
       sort_points="true"
       interpolator_type="Linear"
       interpolator_beta="0.2"
       start_linecap_type="butt"
       linejoin_type="round"
       miter_limit="4"
       end_linecap_type="round" />
    <inkscape:path-effect
       effect="powerstroke"
       id="path-effect4271-2"
       is_visible="true"
       offset_points="0.94185175,-90.552902 | 2.8937922,-16.749157 | 6,1"
       sort_points="true"
       interpolator_type="Linear"
       interpolator_beta="0.2"
       start_linecap_type="peak"
       linejoin_type="round"
       miter_limit="4"
       end_linecap_type="round" />
    <inkscape:path-effect
       effect="powerstroke"
       id="path-effect4313-3"
       is_visible="true"
       offset_points="0.0059585611,27.10843 | 0.65055401,25.211703 | 2.9708908,18.188692"
       sort_points="true"
       interpolator_type="Linear"
       interpolator_beta="0.2"
       start_linecap_type="square"
       linejoin_type="round"
       miter_limit="4"
       end_linecap_type="square" />
    <inkscape:path-effect
       effect="powerstroke"
       id="path-effect4315-7"
       is_visible="true"
       offset_points="0,40.408553 | 1.141441,18.712208 | 4,35.851469"
       sort_points="true"
       interpolator_type="Linear"
       interpolator_beta="0.2"
       start_linecap_type="butt"
       linejoin_type="round"
       miter_limit="4"
       end_linecap_type="peak" />
  </defs>
  <sodipodi:namedview
     id="base"
     pagecolor="#ffffff"
     bordercolor="#666666"
     borderopacity="1.0"
     inkscape:pageopacity="0.0"
     inkscape:pageshadow="2"
     inkscape:zoom="0.24748737"
     inkscape:cx="228.89959"
     inkscape:cy="670.59428"
     inkscape:document-units="px"
     inkscape:current-layer="layer1"
     showgrid="false"
     inkscape:window-width="1920"
     inkscape:window-height="1080"
     inkscape:window-x="0"
     inkscape:window-y="0"
     inkscape:window-maximized="0" />
  <metadata
     id="metadata7">
    <rdf:RDF>
      <cc:Work
         rdf:about="">
        <dc:format>image/svg+xml</dc:format>
        <dc:type
           rdf:resource="http://purl.org/dc/dcmitype/StillImage" />
        <dc:title></dc:title>
      </cc:Work>
    </rdf:RDF>
  </metadata>
  <g
     inkscape:label="Layer 1"
     inkscape:groupmode="layer"
     id="layer1">
    <g
       id="g4878"
       transform="translate(-45.392284,225.51721)">
      <path
         sodipodi:nodetypes="csssssc"
         inkscape:original-d="M 428.57143,238.07649 C 426.37941,196.51799 396.96976,163.38687 380,123.79078 301.82703,-58.612814 182.26583,-202.4266 -45.71429,-35.066364 c -99.95059,73.373741 -207.76598,57.058503 -302.85714,-80.285716 -30.1099,-43.48902 -95.77539,-43.26011 -137.14286,-74.28571 -63.37722,-47.53292 -23.36645,-79.53724 -105.71428,-100 C -627.58534,-298.62245 -660,-238.20922 -660,-238.20922"
         inkscape:path-effect="#path-effect4271"
         inkscape:connector-curvature="0"
         id="path4269"
         d="m 338.14423,242.84611 c -0.0121,-0.22963 -0.0939,-1.43762 -1.00764,-4.20697 -0.98004,-2.97034 -2.73102,-7.19678 -5.99201,-13.56039 -3.50299,-6.83589 -7.26079,-13.35467 -12.84594,-23.25679 -5.11729,-9.07263 -11.34112,-20.26567 -17.17061,-32.66528 -0.93265,-3.36294 -1.85359,-6.83156 -2.73993,-10.38936 -15.78551,-43.29445 -33.03266,-81.939304 -52.18808,-113.514764 -19.13796,-31.546663 -38.8309,-53.7977285 -58.61968,-67.664135 -9.78337,-6.855409 -20.0721,-12.017278 -31.30541,-15.253472 -11.27521,-3.248261 -24.40499,-4.818061 -39.95285,-3.552366 -15.62886,1.272289 -33.971685,5.439596 -55.302932,13.95593 -21.37846,8.535183 -45.385333,21.2921349 -72.119405,39.346648 -31.34399,19.878973 -64.241122,33.75326 -97.974863,39.873664 -33.93921,6.157684 -67.56678,4.245523 -99.81468,-5.956852 -23.45247,-7.419733 -45.55262,-19.02186 -66.25503,-34.26658 -20.66234,-15.2152099 -40.02217,-34.120364 -58.20819,-56.38278 -13.96285,-15.707473 -27.4884,-33.434059 -40.56656,-53.154738 -3.75996,-6.964405 -9.27386,-13.044815 -17.39283,-18.922635 -8.28764,-5.99993 -18.32413,-11.10965 -30.36423,-16.46694 -11.12643,-4.95076 -25.51642,-10.73536 -37.94775,-16.65556 -13.03427,-6.20733 -26.38319,-13.63308 -38.22216,-23.61418 -17.15035,-13.97762 -27.40328,-27.12914 -34.28046,-39.45843 -6.58677,-11.80867 -9.96877,-22.89843 -12.68318,-30.22307 -2.74885,-7.41758 -5.51088,-13.54576 -11.68461,-19.20563 -6.45776,-5.92028 -17.47252,-12.12968 -37.25131,-17.96263 -2.99741,-1.19593 -6.13859,-1.71441 -9.52521,-1.54553 -3.4166,0.17038 -7.03079,1.04077 -10.81129,2.58204 -7.63251,3.11168 -15.15298,8.62512 -21.99517,14.86709 -13.57605,12.38508 -23.24537,26.5124 -24.80339,25.72559 a 1,1 90 0 0 1.76234,0.94558 c -1.54437,-0.77991 4.96634,-16.873 16.65046,-32.44147 5.78627,-7.70989 13.13846,-15.67187 21.75801,-21.33237 4.34904,-2.85604 9.18697,-5.23733 14.46979,-6.6481 5.31749,-1.42004 11.07691,-1.85145 17.12956,-0.80601 21.42849,4.4187 36.2261,9.84285 47.44052,17.18419 11.5278,7.54649 18.03898,16.29694 23.56577,25.34491 5.75008,9.41353 8.89227,16.04097 15.45323,24.47882 5.9528,7.65572 14.59741,16.37737 29.06946,26.14232 8.83391,5.51702 19.22769,9.72662 31.07038,13.54666 12.60231,4.06507 23.9753,6.87219 38.34574,11.12175 13.27891,3.92677 27.95392,8.79917 41.70766,15.98412 14.00021,7.3137 27.89419,17.44584 39.23495,32.25955 12.38842,17.06048 24.78503,31.77771 37.10248,44.321424 17.74705,16.35465 34.96341,28.248016 51.31745,36.375761 16.32739,8.114498 31.60734,12.388686 45.76288,13.822928 19.09232,1.934438 37.09019,-1.195865 54.45522,-8.261729 17.52003,-7.128929 35.669906,-18.802199 54.256987,-35.574235 30.261577,-23.776849 59.860541,-43.153249 88.9632968,-58.065769 29.1647782,-14.94429 58.1456712,-25.56568 87.0221732,-31.49999 28.966723,-5.95286 57.413383,-7.09821 85.185783,-3.44057 27.7922,3.66025 53.91893,12.00143 78.21778,24.03738 48.27179,23.91048 87.57309,61.467522 119.86448,102.899908 32.35933,41.5195591 59.39914,89.134816 82.68664,137.101147 1.08446,1.042413 2.22668,2.144403 3.41745,3.300044 2.78347,5.924033 6.28637,12.412271 10.994,20.810411 4.17203,7.44265 10.45298,18.39311 15.84826,28.8268 5.70143,11.02575 11.96656,24.34259 17.01916,39.46406 5.11916,15.32068 9.08777,32.75083 10.10789,52.09136 l -85.65758,95.19682 -95.19682,-85.65758 z"
         style="fill:#e4e4e4;fill-opacity:1;fill-rule:evenodd;stroke:none;stroke-width:1px;stroke-linecap:butt;stroke-linejoin:miter;stroke-opacity:1" />
      <path
         sodipodi:nodetypes="csssssssc"
         inkscape:original-d="m 335.78097,318.77485 c 0,0 -1.58289,-25.55434 28.71501,-39.68311 93.15691,-43.44172 -131.42858,-90.29254 -131.42858,-74.28571 0,17.14457 43.85756,5.38081 51.42858,2.85714 48.95604,-16.31868 122.57871,-117.421285 80,-159.999996 C 322.91431,6.0815038 235.30278,40.209435 181.63883,13.37746 107.76631,-23.558806 123.46647,-56.223476 87.353127,-92.336826 43.754017,-135.93594 -19.977615,-116.93272 -72.646876,-103.7654 c -30.735954,7.683994 -61.280414,-8.57143 -88.571434,-8.57143"
         inkscape:path-effect="#path-effect4237"
         inkscape:connector-curvature="0"
         id="path4235"
         d="m 370.56883,316.62002 c 0.0368,0.59387 0.0495,1.04678 0.0529,1.38372 -0.64393,2.54152 -0.9066,-0.34808 -0.77556,-1.19074 0.13176,-0.8473 0.49264,-2.07127 1.53534,-3.48753 1.03976,-1.41226 2.9772,-3.31001 6.62,-5.2724 7.29269,-3.47245 14.07068,-7.43898 19.96702,-12.14934 5.84439,-4.66886 11.69536,-10.76627 15.70585,-18.72595 4.24618,-8.42746 5.84817,-17.84885 4.2286,-27.42339 -1.558,-9.21053 -5.72645,-16.52396 -10.02129,-21.95298 -4.27023,-5.39792 -9.28315,-9.73904 -14.06483,-13.21626 -4.84391,-3.52247 -10.12876,-6.64652 -15.44846,-9.4104 -10.69788,-5.55814 -22.69198,-10.26757 -34.86918,-14.27263 -24.23314,-7.97024 -51.24921,-13.82289 -72.58296,-16.63021 -5.39144,-0.70946 -10.58484,-1.2466 -15.38281,-1.56652 -4.74164,-0.31616 -9.44974,-0.44443 -13.81039,-0.25874 -2.19034,0.0933 -4.53552,0.27547 -6.89249,0.61108 -2.26582,0.32263 -5.14864,0.87061 -8.19747,1.89121 -2.74667,0.91945 -7.62901,2.87074 -12.2378,7.05551 -2.464,2.23731 -5.08153,5.32614 -7.06654,9.41917 -2.03159,4.18906 -3.06781,8.75836 -3.05071,13.38241 0.0669,4.19597 0.81312,8.59463 2.51935,12.9296 1.70806,4.33959 4.19244,8.13968 7.19922,11.32692 2.9775,3.15622 6.23847,5.47366 9.33271,7.1478 3.05819,1.65465 6.02985,2.72454 8.66585,3.44748 5.16241,1.41585 10.17227,1.80118 14.28979,1.83302 4.23826,0.0328 8.39972,-0.30795 12.18963,-0.79243 7.53832,-0.96366 14.93227,-2.67013 20.70921,-4.26265 2.92835,-0.80725 5.61948,-1.63419 7.81168,-2.37132 2.25076,-0.75682 4.06313,-1.44505 5.60329,-2.09295 8.78931,-3.06665 17.27745,-7.74109 25.11359,-13.11533 7.90816,-5.42362 15.64679,-11.9001 22.97658,-19.02802 14.6153,-14.21278 28.32442,-31.71656 38.85249,-50.12669 10.43254,-18.24308 18.52687,-38.74783 20.41899,-58.900669 0.91741,-9.771193 0.41479,-19.890527 -2.32203,-29.711851 -2.76828,-9.934172 -7.74673,-19.257602 -15.26267,-27.264881 -0.65598,-0.687641 -1.32816,-1.362398 -2.01644,-2.024152 C 365.59975,17.679631 347.64523,10.966942 330.13803,7.8290533 313.01399,4.7598384 294.44406,4.8087816 277.60978,5.2343931 260.03863,5.6786348 243.85296,6.5494138 228.36215,5.8522505 213.05476,5.1633416 199.98828,2.9593405 189.27527,-1.8953517 171.74203,-10.163227 159.97463,-17.922846 151.54518,-25.157225 c -8.37041,-7.183698 -13.94029,-14.267598 -18.69044,-21.740291 -5.8369,-9.182313 -7.9419,-14.305486 -14.46274,-25.142865 -5.57832,-9.270955 -12.39378,-18.858835 -22.753685,-28.581629 -12.592293,-11.95742 -26.543197,-19.433 -41.099734,-23.62804 -14.475216,-4.17161 -29.409475,-5.06348 -44.089956,-4.12107 -29.044922,1.86453 -58.977688,11.11371 -84.637667,18.43706 -13.784897,4.37609 -28.136388,3.40293 -43.281438,1.17269 -14.94692,-2.20107 -29.85348,-5.47179 -43.74783,-4.57546 a 1,1 90 0 0 0,2 c 13.38461,0.88894 27.41992,5.76071 42.23991,9.75897 14.659,3.954825 30.897554,7.310662 47.873691,3.981122 26.999611,-5.817752 55.286631,-12.706282 82.164948,-12.709192 13.290435,-0.001 25.746789,1.7018 37.133883,5.82083 11.305932,4.08968 21.661874,10.594232 30.873795,20.433437 7.709831,8.335007 12.448271,16.370507 16.404604,24.536421 3.238157,6.683591 8.121639,18.635941 12.345319,26.836205 5.06224,9.828335 11.6971,20.085921 22.2773,30.5473725 10.51972,10.401647 24.51646,20.5871455 43.90728,30.7819475 16.10936,8.551936 34.13757,12.162652 51.6401,13.911309 17.35953,1.73437 35.67603,1.733809 51.94422,2.182377 16.93939,0.467076 31.49274,1.414115 44.13278,4.500999 12.32819,3.010721 20.84548,7.59666 26.91319,14.281473 0.20592,0.232436 0.40227,0.464766 0.58958,0.696794 2.1048,2.474385 3.44517,5.287406 4.20096,8.613337 0.78196,3.441067 0.99587,7.739866 0.30299,13.025142 -1.48031,11.291817 -6.84075,25.060756 -15.62461,39.458186 -8.67885,14.22532 -19.88533,27.72288 -31.51666,38.38467 -5.79018,5.30753 -11.50514,9.74567 -16.82608,13.13789 -5.38742,3.4346 -9.92282,5.5094 -13.36569,6.51238 -0.25515,-0.033 -1.66436,0.2305 -3.16377,0.51704 -1.79203,0.34247 -3.49611,0.67429 -5.88072,1.07709 -4.55673,0.7697 -9.58468,1.44082 -13.93815,1.57299 -2.1388,0.0649 -3.86778,-0.0119 -5.00858,-0.19341 -3.79526,-0.6037 1.25435,-0.0246 -0.32024,-0.30595 0.53206,0.0951 1.55279,0.36636 2.91839,1.07183 1.39103,0.71861 3.17277,1.91024 4.93668,3.75237 1.79361,1.87315 3.32663,4.17024 4.38941,6.79994 1.06105,2.62545 1.46274,5.1059 1.53057,7.15929 0.0172,4.12385 -0.90954,8.22359 -2.72586,11.97334 -1.76977,3.65363 -4.06672,6.33344 -6.10857,8.19122 -3.75655,3.41792 -7.40525,4.74484 -8.5217,5.13084 -1.71529,0.59304 -2.02626,0.53423 -2.24675,0.65461 -0.0688,0.0376 0.35086,0.0258 1.09428,0.0383 1.64639,0.0276 4.02638,0.14397 7.47688,0.49005 3.35246,0.33624 7.25083,0.84394 11.66532,1.5463 17.87437,2.84384 41.16339,8.39571 61.44152,15.57855 10.06986,3.56691 18.87873,7.35555 25.39825,10.96828 3.27865,1.81683 5.73546,3.45378 7.43807,4.81467 1.93981,1.55049 2.00199,1.952 1.87181,1.81975 -0.32282,-0.32796 -1.92641,-2.36401 -2.62345,-6.30025 -0.75814,-4.28126 0.0319,-8.32236 1.49883,-11.34803 1.25023,-2.5787 2.34579,-3.17804 1.25963,-2.42212 -1.081,0.75234 -3.39995,2.21951 -7.78454,4.18886 -10.24935,4.51139 -18.79862,10.26824 -25.77187,16.83736 -6.96646,6.56272 -12.02358,13.61867 -15.6273,20.48381 -7.09822,13.52223 -8.26738,25.85163 -8.6785,31.04707 0.008,1.02037 0.0435,1.83714 0.0803,2.43104 l 69.57572,-4.30966 z"
         style="fill:#c5c5c5;fill-opacity:1;fill-rule:nonzero;stroke:none;stroke-width:1px;stroke-linecap:butt;stroke-linejoin:miter;stroke-opacity:1" />
      <path
         sodipodi:nodetypes="csssssc"
         inkscape:original-d="m 431.00067,193.10132 c -2.192,-41.5585 -31.6016,-74.68962 -48.5714,-114.285711 C 304.2563,-103.58798 184.6951,-247.40177 -43.285021,-80.041531 c -99.950589,73.37374 -207.765949,89.0585 -302.857149,-48.285719 -30.1099,-43.48902 -95.7754,-43.26011 -137.1428,-74.28571 -63.3773,-47.53292 -23.3665,-79.53724 -105.7143,-100 -36.1568,-8.98466 -68.5715,51.42857 -68.5715,51.42857"
         inkscape:path-effect="#path-effect4271-2"
         inkscape:connector-curvature="0"
         id="path4269-9"
         d="m 340.57347,197.8709 c -0.0121,-0.22964 -0.0939,-1.43764 -1.00764,-4.20698 -0.98004,-2.97034 -2.73102,-7.19678 -5.99199,-13.56038 -3.50299,-6.83587 -7.26078,-13.35465 -12.84592,-23.25675 -5.11728,-9.07262 -11.3411,-20.26565 -17.17059,-32.66523 -0.80099,-3.42484 -1.58799,-6.95135 -2.33843,-10.56141 C 286.01461,70.084573 269.27719,31.046282 250.52076,-1.0556224 231.81158,-33.076667 212.21241,-56.271559 192.0445,-71.05269 c -10.00845,-7.335222 -20.66858,-12.991813 -32.43786,-16.640401 -11.81524,-3.662835 -25.56656,-5.556506 -41.80473,-4.498291 -16.31306,1.063096 -35.328611,5.125712 -57.301512,13.594179 -22.010959,8.483135 -46.607868,21.242579 -73.875251,39.299532 -29.58264,17.81729 -60.326889,32.0663879 -91.556517,40.446781 -31.39126,8.4237653 -63.11945,10.866543 -94.10823,5.2251285 -24.38675,-4.4395348 -47.44136,-13.7272734 -69.00099,-27.9357735 -21.46774,-14.147944 -41.28743,-33.055908 -59.71624,-56.719707 -10.79313,-12.016645 -21.34758,-25.611518 -31.65709,-40.857228 -5.53561,-8.82679 -13.07776,-15.91543 -22.57553,-22.13375 -9.60633,-6.28941 -20.70721,-11.36916 -33.05944,-16.3924 -23.89043,-9.71543 -52.67916,-19.07783 -74.49298,-36.60578 -16.51094,-12.98137 -26.31441,-25.057 -32.96794,-36.26691 -6.46366,-10.89001 -9.95802,-21.11491 -13.29633,-28.85332 -3.38402,-7.84437 -7.09562,-14.61118 -14.5601,-20.78213 -7.61477,-6.29519 -19.58938,-12.35809 -39.76987,-17.86524 -7.50841,-2.3528 -15.33274,-1.19141 -23.26622,2.55931 -7.92363,3.74607 -15.44639,9.84232 -22.06317,16.4553 -13.17731,13.16972 -22.13823,27.77219 -22.98644,27.36621 a 1,1 90 0 0 1.76234,0.94558 c -0.84449,-0.4042 6.3945,-16.0119 18.46746,-30.80086 6.00798,-7.35956 13.36532,-14.69736 21.69004,-19.74415 8.33337,-5.05204 18.07968,-8.06863 28.66967,-5.93131 21.00227,4.72976 34.88899,10.32986 44.92192,17.28157 10.19187,7.06183 15.84383,15.12082 20.69027,23.76842 4.95741,8.8456 8.32479,16.64623 14.84012,25.84857 6.22539,8.79284 15.22162,18.5549 30.38206,29.33385 19.57209,13.46091 44.26282,19.57033 71.09294,28.33236 12.99123,4.2426 26.55291,9.18141 39.01244,16.05867 12.58777,6.94803 24.52077,16.12225 34.05224,29.04842 9.88946,13.92825 19.82073,26.05531 29.75133,36.53632 20.00949,18.047095 39.38743,29.761407 57.67773,36.619558 18.20996,6.828024 35.33532,8.852416 51.40925,7.655632 20.30254,-1.511626 40.29757,-8.272936 60.16166,-19.079743 20.04223,-10.903717 40.308797,-26.132617 60.675321,-45.001117 29.72773,-23.77234 58.737735,-43.1504 87.207454,-58.11289 28.524797,-14.99143 56.829621,-25.71896 85.023589,-31.86174 28.280106,-6.16155 56.097856,-7.62835 83.333896,-4.3865 27.25932,3.24463 53.00848,11.09755 77.08535,22.65045 47.87697,22.97304 87.30344,59.63172 120.00792,100.567021 32.75507,40.998624 60.31114,88.2094875 84.17662,135.940217 1.22269,0.992161 2.49406,2.03199 3.81889,3.127869 2.78348,5.924058 6.2864,12.412316 10.99404,20.810463 4.17204,7.442686 10.45298,18.393123 15.84826,28.826835 5.70144,11.025755 11.96656,24.342605 17.01915,39.464085 5.11915,15.32068 9.08774,32.75083 10.10785,52.09134 l -85.65762,95.19678 -95.19678,-85.65762 z"
         style="fill:#cccccc;fill-opacity:1;fill-rule:evenodd;stroke:none;stroke-width:1px;stroke-linecap:butt;stroke-linejoin:miter;stroke-opacity:1" />
      <path
         sodipodi:nodetypes="csssssssc"
         inkscape:original-d="m 558.74382,-205.78613 c -48.38693,-35.52389 -266.53728,-23.29929 -254.73925,14.2539 11.07452,35.2503 182.8615,51.21323 172.04957,76.15456 -16.54039,38.155877 -136.2389,56.256187 -149.83314,87.615786 -17.63275,40.675764 137.73748,53.790626 148.39574,87.715912 15.16139,48.258762 -52.02904,46.989262 -49.85851,86.345772 0,0 82.90553,23.77089 75.89291,39.94777 -37.66643,86.89007 -118.10068,49.05118 -157.22771,79.58811 -36.43964,28.43955 9.59856,79.26247 46.98934,103.03974"
         inkscape:path-effect="#path-effect4209"
         inkscape:connector-curvature="0"
         id="path4207"
         d="m 548.53108,-191.87541 c -3.36742,-2.47224 -9.17125,-5.25772 -17.82247,-7.85622 -8.44792,-2.53743 -18.73825,-4.64078 -30.38896,-6.24939 -1.82018,-0.18277 -3.66754,-0.35282 -5.54046,-0.51016 -25.97815,-2.18239 -56.31026,-1.87115 -84.84101,0.66886 -14.23485,1.26729 -27.85452,3.07518 -40.11295,5.35804 -12.30787,2.29207 -22.92189,5.00491 -31.15853,7.97491 -4.0984,1.47781 -7.40998,2.94988 -9.8899,4.33092 -2.47154,1.37636 -3.89523,2.56168 -4.10439,3.06041 -0.0863,0.20566 0.12809,0.23829 0.67748,-0.20872 0.52897,-0.43041 1.35011,-1.31699 2.10932,-2.74426 0.77514,-1.45722 1.38444,-3.29319 1.61594,-5.41723 0.23274,-2.13533 0.0387,-4.13439 -0.36526,-5.82561 -0.506,-2.44004 -1.25826,-3.41916 -1.11446,-3.70292 0.10151,-0.2003 1.005,0.34889 2.66404,1.18163 3.77389,1.89429 9.06175,4.12884 17.27876,6.8112 16.19204,5.28573 36.71816,10.03251 58.85518,14.96931 10.6041,2.36483 21.83452,4.83392 31.91535,7.22849 10.07825,2.39395 20.25932,5.00266 29.07492,7.83397 4.4496,1.42908 9.00509,3.05767 13.30071,4.928 4.16585,1.81382 9.01039,4.2483 13.60294,7.56969 2.35424,1.70261 4.97985,3.87922 7.52588,6.6361 2.54366,2.75429 5.29517,6.39967 7.49228,11.04052 2.25354,4.76006 3.83052,10.38922 4.01912,16.70949 0.18931,6.34366 -1.05467,12.25125 -3.19205,17.48352 -4.62636,11.838063 -12.29741,20.99503 -19.56807,27.859479 -7.37405,6.962068 -15.63513,12.783058 -23.76364,17.770013 -15.99516,9.813256 -34.86009,18.397515 -51.15252,25.767335 -17.17221,7.767785 -31.87625,14.367342 -42.20657,20.6493173 -4.8653,2.9586367 -8.19873,5.556627 -8.84611,6.678978 -0.27133,0.4704072 0.0783,0.6685987 1.26007,-0.2687983 1.08676,-0.8620356 2.9883,-2.863774 4.76261,-6.3672758 1.8959,-3.7481042 3.40088,-9.0664362 3.17709,-15.5210652 -0.2223,-6.411383 -2.05563,-11.563146 -3.95989,-15.223761 -1.60514,-3.08562 -3.64215,-5.649889 -3.84871,-5.963818 -0.47582,-0.723146 -0.0897,-0.626616 1.16076,-0.14452 3.83417,1.478174 6.54592,2.682823 14.90326,5.402521 7.26181,2.363184 15.29158,4.690897 24.77475,7.331476 8.71202,2.425852 19.68133,5.392833 29.2083,8.136111 9.84208,2.83401 20.48198,6.081532 30.43645,9.769061 9.57984,3.548751 21.05208,8.4064618 31.50779,15.22870812 7.06642,4.61076058 16.33385,11.81385188 23.94209,22.65527988 3.39096,5.389203 6.52775,11.805155 8.67389,19.213514 3.23498,12.122419 4.62068,24.997356 2.97864,38.216614 -1.66707,13.420874 -6.20634,25.136581 -12.46953,35.034061 -6.05451,9.56772 -13.17625,16.59415 -19.31535,21.63854 -6.06898,4.98678 -12.07236,8.7543 -16.57533,11.38177 -4.38489,2.55858 -8.80889,4.86476 -11.17319,6.04923 -2.68741,1.34634 -4.19829,2.02124 -4.54582,1.64256 -0.39426,-0.42961 0.41371,-1.99615 0.98472,-4.86236 0.59279,-2.97548 0.54499,-5.92157 -0.19075,-7.67926 a 39.422214,7.6764451 62.440017 0 1 -32.96155,-41.32136 c 0.14101,2.32773 21.18309,10.58251 42.55428,21.48906 5.34144,2.72594 10.8689,5.70339 16.1284,8.8456 5.18838,3.09971 10.59118,6.64124 15.53281,10.55689 2.49163,1.97433 5.11678,4.24129 7.64641,6.79312 2.46896,2.49061 5.32081,5.72682 7.85631,9.66786 2.48246,3.85859 5.40409,9.53816 6.58563,16.53601 1.25909,7.45723 0.3646,15.46968 -3.13968,22.82663 -12.61849,26.32937 -29.14448,44.24929 -48.32189,55.96441 -18.86479,11.52414 -38.17106,15.74731 -55.08757,17.6189 -15.16492,1.67779 -34.02322,1.7129 -44.51423,2.3964 -12.38934,0.80718 -20.99446,2.51822 -27.17901,6.00278 -2.89686,1.59352 -4.87637,3.15857 -6.13153,4.48122 -1.30198,1.37198 -2.3545,3.02294 -2.94984,5.34007 -1.26947,4.94098 -0.25521,12.26206 3.97105,21.43926 7.28425,15.81755 21.94083,32.60284 36.99747,45.64792 2.36101,1.67558 4.70521,3.25182 7.00809,4.71625 l -7.73976,12.1711 c -2.51625,-1.60012 -5.06301,-3.31306 -7.616,-5.12484 -18.03334,-10.51081 -37.88833,-26.37811 -50.74059,-44.05402 -7.32479,-10.07389 -13.47936,-22.24052 -14.22342,-35.58876 -0.38228,-6.85804 0.67664,-13.94983 3.6747,-20.93332 2.99352,-6.9729 7.6711,-13.25762 13.82184,-18.75379 13.25559,-11.73414 29.6242,-16.84418 44.37442,-20.19623 16.90233,-3.84113 27.58235,-4.87141 42.25553,-8.72787 12.87444,-3.38371 23.01818,-7.82798 31.13443,-14.63778 7.7267,-6.48295 15.36731,-16.61539 21.58834,-33.63181 -2.6341,5.33265 -3.34165,11.2679 -2.53298,16.59756 0.73192,4.82389 2.60265,8.43101 3.48369,10.04293 1.04745,1.91639 1.55423,2.5787 1.5521,3.00259 -0.002,0.34911 -0.49973,0.28739 -1.35374,0.0475 -0.91623,-0.25732 -5.61621,-1.87231 -8.53011,-2.8076 -3.83507,-1.23096 -7.99511,-2.4732 -12.6425,-3.73742 -18.3261,-4.98522 -38.74136,-8.69166 -38.59809,-6.32605 l -32.96156,-41.3214 c -1.20612,-11.67968 0.22651,-23.02959 4.09133,-33.7401 3.77803,-10.47 9.34626,-18.868039 14.71619,-25.418815 5.2314,-6.381787 10.8159,-11.644082 15.07932,-15.522528 4.78801,-4.355669 7.83571,-6.929844 10.78978,-9.837433 2.6377,-2.596185 4.09668,-4.472246 4.16978,-5.33949 0.064,-0.759099 -1.30863,-0.459833 -3.34392,1.969709 -2.16751,2.587376 -3.88701,6.232901 -4.82752,10.304656 -0.88866,3.847319 -0.69853,6.306523 -1.26454,6.313653 1.30276,4.725049 3.14697,8.528201 4.82969,11.358134 4.19278,5.706973 7.28162,6.860482 7.46692,6.828721 0.92059,-0.157795 -3.22206,-2.987487 -8.49863,-5.684978 -5.73723,-2.932997 -13.12181,-6.079461 -21.81057,-9.510076 -8.87052,-3.502382 -17.79043,-6.800373 -27.83289,-10.642181 -9.60383,-3.674011 -19.91413,-7.728366 -29.61415,-12.079673 -9.52863,-4.274425 -19.94243,-9.481437 -29.38693,-15.775193 -4.80537,-3.20227 -9.9559,-7.077343 -14.8703,-11.750131 -4.87626,-4.636516 -10.2153,-10.715424 -14.56265,-18.436176 -4.49158,-7.9769121 -7.85409,-17.6171664 -8.42594,-28.704628 -0.57443,-11.137667 1.79646,-21.313975 5.88974,-30.152102 3.46322,-7.401494 7.91377,-13.26364 12.24512,-17.832688 4.30158,-4.537642 8.9033,-8.238752 13.10311,-11.210214 8.40834,-5.949092 17.09972,-10.347974 25.46936,-14.022484 15.99896,-7.023996 35.71116,-13.414373 51.77595,-18.761003 17.68695,-5.88652 32.12176,-10.85789 43.9348,-16.19159 5.83143,-2.63295 9.34205,-4.59632 11.93285,-6.11722 2.4478,-1.43696 2.22872,-1.42068 1.69087,0.99262 -1.46046,3.67394 -2.38767,8.03926 -2.21378,12.85792 0.17302,4.79449 1.39575,8.91456 2.9833,12.17875 1.53231,3.15061 3.2977,5.303777 4.56806,6.594283 1.28661,1.30701 2.31082,1.988279 2.83901,2.264012 1.50305,0.784641 0.38273,-0.341733 -0.55586,-0.993374 -1.35255,-0.939037 -3.52179,-2.12603 -6.40006,-3.462641 -5.82627,-2.70562 -13.65849,-5.62738 -22.92923,-8.76126 -9.26379,-3.13153 -19.4215,-6.29771 -30.18707,-9.67073 -21.05947,-6.59826 -44.44698,-13.96975 -63.45871,-22.39098 -9.47728,-4.19795 -18.94103,-9.11459 -26.84008,-14.97485 -3.99432,-2.96336 -8.07196,-6.52132 -11.61557,-10.77769 -3.55816,-4.27382 -7.00201,-9.76585 -8.86647,-16.48352 -1.1434,-4.03602 -1.62161,-8.33727 -1.25445,-12.71708 0.36653,-4.37224 1.53989,-8.40126 3.2751,-12.00364 1.7185,-3.56768 3.90591,-6.55239 6.17043,-9.01743 2.24441,-2.44316 4.65791,-4.47848 6.99415,-6.16045 4.61421,-3.32198 9.74126,-5.852 14.71017,-7.84584 5.04995,-2.02637 10.53217,-3.73381 16.1904,-5.19101 11.27503,-2.90373 24.34649,-5.09252 38.11516,-6.65324 13.84735,-1.56964 28.85818,-2.55545 44.17127,-2.94458 30.58806,-0.7773 63.1135,0.80644 91.28627,5.142 2.04895,0.31532 4.07749,0.64558 6.08283,0.99101 12.84322,1.77343 24.97433,4.19612 35.62974,7.39867 10.45191,3.14138 20.43325,7.30996 28.28623,13.07532 l 3.69798,24.12346 -24.12346,3.69798 z"
         style="fill:#bfbfbf;fill-opacity:1;fill-rule:nonzero;stroke:none;stroke-width:1px;stroke-linecap:butt;stroke-linejoin:miter;stroke-opacity:1" />
      <path
         sodipodi:nodetypes="cscsssssc"
         inkscape:original-d="m 346.22976,324.83473 c -1.38966,-21.9781 31.75215,-25.55433 41.847,-45.74402 45.96823,-91.93647 -130.41843,-56.10297 -130.41843,-56.10297 L 322.2189,202.61137 C 371.43021,187.07948 430.65547,90.240852 388.07676,47.662144 346.49509,6.080477 258.88356,40.208404 205.21961,13.376434 131.34709,-23.559831 147.04725,-56.224501 110.9339,-92.337851 67.334797,-135.93697 3.6031621,-116.93375 -49.06609,-103.76643 c -30.73596,7.683999 -61.28042,-8.57143 -88.57143,-8.57143"
         inkscape:path-effect="#path-effect4237-5"
         inkscape:connector-curvature="0"
         id="path4235-6"
         d="m 363.15197,323.76475 c -0.01,-0.15896 -0.01,-0.28088 -0.007,-0.36984 -0.008,-0.22802 -0.006,-0.35606 0.0125,-0.42748 0.0314,-0.12341 0.16094,-0.45388 0.6142,-1.04036 1.2533,-1.62168 3.67277,-3.63267 8.23976,-6.6998 3.87137,-2.59996 10.05763,-6.42691 15.23061,-10.52234 5.47638,-4.33563 11.485,-10.17177 15.48763,-18.28759 6.47162,-12.99765 9.90615,-25.45207 9.22517,-37.13101 -0.34303,-5.88325 -1.72686,-11.40461 -4.13102,-16.4711 -2.40377,-5.06569 -5.69661,-9.40185 -9.55028,-13.046 -7.58043,-7.16831 -17.17422,-11.53296 -26.69411,-14.32015 -9.63145,-2.81985 -20.06547,-4.27857 -30.41367,-4.93765 -20.6051,-1.31236 -42.3552,0.46444 -58.58953,2.48767 -16.37573,2.04086 -27.80038,4.41418 -28.06189,4.51434 a 15.072059,16.445508 28.004743 0 0 7.89626,30.53249 l 64.38225,-20.94133 c 15.47335,-4.93443 30.37442,-15.71871 43.13777,-28.67691 12.93798,-13.1355 24.502,-29.33445 32.98379,-46.51852 8.43308,-17.08541 14.15974,-35.84655 14.50507,-53.936005 0.16769,-8.784169 -0.9323,-17.586451 -3.7505,-25.977938 C 410.83617,53.559233 406.31246,45.686775 399.85915,38.830102 399.37781,38.330857 398.887,37.83819 398.3867,37.3522 385.16221,24.53129 368.84344,18.175909 352.24962,15.055871 335.90285,11.982281 318.04633,11.836765 301.18656,12.10525 283.85517,12.381246 267.27212,13.10172 251.47172,12.211298 235.78095,11.327053 221.86477,8.8760664 210.22185,3.3719552 192.36811,-5.2387576 180.2313,-13.420597 171.44596,-21.207959 c -8.74535,-7.751923 -14.48226,-15.388618 -19.27868,-23.266648 -5.63192,-9.250321 -8.03974,-15.081588 -14.07184,-25.447896 -5.28891,-9.089121 -11.75116,-18.424524 -21.65301,-27.923873 C 104.4276,-109.45961 91.081616,-116.78551 77.069037,-120.979 c -13.958501,-4.17732 -28.485723,-5.22158 -42.939981,-4.44974 -28.6977304,1.53243 -58.371679,10.34793 -84.261119,17.39842 -14.276969,4.15605 -28.919501,2.77682 -43.958809,0.22627 -14.892288,-2.52562 -29.689768,-6.10019 -43.546648,-5.53381 a 1,1 90 0 0 0,2 c 13.43032,0.56515 27.5582,5.12074 42.44107,8.80062 14.750771,3.647207 30.726235,6.571602 47.196333,3.034698 26.775755,-6.105708 55.3103649,-13.397718 82.541483,-13.747828 13.514102,-0.17375 26.382602,1.38059 38.283853,5.49217 11.847159,4.09289 22.813477,10.743789 32.600131,20.928849 8.16024,8.557763 13.26719,16.847127 17.50528,25.194181 3.61562,7.121059 8.41885,18.432522 12.73622,26.531174 5.02217,9.420719 11.47761,19.130066 21.68906,29.0210154 10.17113,9.8518948 23.78388,19.6087086 42.86146,29.4638926 15.18503,7.907971 32.35232,11.260789 49.4771,12.819574 17.03128,1.550273 34.98776,1.381088 51.47705,1.670569 16.93514,0.297309 32.15942,1.07517 45.59797,4.145038 13.21931,3.019784 23.41687,7.980605 30.99733,15.955995 0.26079,0.275095 0.51479,0.552183 0.76217,0.831167 3.37456,3.63822 5.74905,7.803305 7.27748,12.470135 1.54304,4.711409 2.26726,10.079688 2.11311,16.056807 -0.3231,12.528311 -4.49274,26.931293 -11.69615,41.319263 -7.15397,14.2892 -16.96146,27.87368 -27.63867,38.59416 -10.85111,10.89508 -21.80816,18.04586 -30.94014,20.87452 l -64.7389,19.81141 a 15.147577,16.383997 28.254418 0 0 7.89626,30.53249 c -0.26217,0.10041 10.36283,-2.00596 25.62243,-3.81062 15.40122,-1.8214 34.87566,-3.25921 52.62075,-2.03675 8.82645,0.60805 16.85084,1.8521 23.39995,3.81147 6.66105,1.99287 10.97321,4.48048 13.46446,6.88248 1.18371,1.14129 1.96572,2.26666 2.48791,3.42363 0.52104,1.15444 0.90748,2.61516 0.98884,4.54982 0.16642,3.95709 -0.9422,10.49704 -5.9628,20.48199 -1.04181,1.97417 -2.96747,4.16594 -6.49793,6.86115 -3.84874,2.93817 -7.73012,5.16869 -13.24422,8.73165 -4.78601,3.09251 -11.06357,7.36911 -15.92838,13.22485 -2.22239,2.67508 -4.27548,5.81364 -5.81929,9.49815 -1.55653,3.71484 -2.48962,7.73554 -2.67548,12.02021 -0.0485,1.26519 -0.031,2.53399 0.0493,3.80464 l 33.84442,-2.13996 z"
         style="fill:#747474;fill-opacity:1;fill-rule:nonzero;stroke:none;stroke-width:1px;stroke-linecap:butt;stroke-linejoin:miter;stroke-opacity:1" />
      <path
         sodipodi:nodetypes="csssssssc"
         inkscape:original-d="m 528.22908,-238.64848 c -48.38693,-35.5239 -257.92492,-14.4972 -246.12688,23.05598 11.07452,35.2503 182.8615,51.21323 172.04955,76.15456 -16.54039,38.15588 -147.11132,52.667655 -160.70556,84.027253 -17.63275,40.675781 137.7375,53.7906346 148.39571,87.715925 15.16142,48.258766 -23.58054,54.396395 -38.42104,88.630902 -1.77882,4.10344 82.34052,25.07428 75.32791,41.25116 -37.66645,86.89007 -124.18967,45.17912 -163.3167,75.71606 -36.43962,28.43954 38.15873,80.96437 75.54953,104.74165"
         inkscape:path-effect="#path-effect4209-5"
         inkscape:connector-curvature="0"
         id="path4207-3"
         d="m 519.59766,-226.89166 c -4.09476,-2.73594 -10.72172,-5.50937 -20.24118,-7.82262 -9.31075,-2.26252 -20.57352,-3.88977 -33.11903,-4.84655 -25.12368,-1.91605 -54.42225,-1.07026 -81.99881,2.01293 -13.75749,1.53815 -26.93695,3.61679 -38.82929,6.14005 -11.93754,2.53285 -22.29726,5.45501 -30.47642,8.59892 -4.07481,1.56628 -7.43994,3.12387 -10.08162,4.61104 -2.67618,1.50659 -4.32071,2.78326 -5.1085,3.61896 -0.92479,0.98104 -0.13535,0.67056 0.49624,-0.65597 0.82976,-1.74276 1.02451,-4.10078 0.49187,-6.21016 -0.26562,-1.19679 -0.59665,-1.50999 -0.0509,-1.07188 0.62529,0.502 1.61611,1.32323 3.68193,2.58035 4.1168,2.50521 10.1527,5.28149 18.37922,8.27209 16.39907,5.96159 37.45335,11.35088 59.28575,16.76734 10.63826,2.63928 21.59385,5.32067 31.55468,7.94696 9.95607,2.62504 19.66174,5.38606 27.99011,8.3048 4.18691,1.46734 8.31179,3.07306 12.11126,4.84067 3.71103,1.72647 7.71681,3.88371 11.36199,6.61965 3.44922,2.58885 8.14762,6.85742 11.14227,13.32893 1.58202,3.41878 2.65983,7.40658 2.76058,11.84245 0.1011,4.45098 -0.79922,8.60511 -2.34677,12.30737 -4.06587,9.89234 -11.05995,17.44875 -17.98263,23.1962 -7.02771,5.83465 -15.09076,10.718892 -23.36588,14.985592 -16.35279,8.431604 -36.02802,15.68497 -53.92564,22.166649 -18.62217,6.744077 -35.2732,12.643843 -47.97617,18.724752 -6.11165,2.925651 -10.80918,5.67371 -13.20757,7.62036 -1.16133,0.942586 -1.70383,1.649479 -1.5427,1.699461 0.12182,0.03779 0.93939,-0.613167 1.82873,-2.400382 0.68421,-1.291274 1.38734,-3.57891 1.28092,-6.554989 -0.10579,-2.958079 -0.9476,-5.162312 -1.61599,-6.495685 -0.60822,-1.213331 -0.90254,-1.444967 -0.2705,-1.034491 0.72602,0.471514 1.74295,1.177865 3.83858,2.326897 4.15854,2.280116 9.91996,4.818012 17.72809,7.692696 7.67209,2.824598 16.2592,5.591251 25.68792,8.501422 17.83557,5.504945 39.97731,11.844331 57.43127,18.756634 8.85267,3.505931 18.36979,7.854801 26.59159,13.4025653 4.19094,2.8278858 8.70037,6.39986375 12.7658,10.9031 4.0957,4.5367645 8.23306,10.5697287 10.74639,18.2251157 0.46308,1.358279 0.901,2.713651 1.31228,4.064622 3.78047,15.8932 3.77681,30.540591 -0.25551,44.387745 -1.95891,6.726985 -4.70818,12.647146 -7.88161,17.828341 -3.15004,5.142997 -6.63704,9.426359 -9.98669,13.065455 -5.97627,6.49268 -14.55926,13.81296 -18.37615,17.36442 -4.89359,4.55327 -8.54274,8.48153 -11.16043,12.98586 l 1e-5,-1.7e-4 c 2.21986,-5.22604 2.60007,-10.69406 1.66764,-15.48441 -0.86865,-4.46262 -2.75493,-7.78825 -4.08304,-9.71911 -4e-5,8e-5 -5e-5,-8e-5 -5e-5,-8e-5 -2.51438,-3.65548 -5.21867,-5.49526 -5.95558,-5.9803 -1.10894,-0.729908 -1.81047,-1.002304 -2.07366,-1.073602 -0.31746,-0.086 -0.3524,-0.0019 -0.24008,0.134401 0.50338,0.610661 3.28992,2.075091 6.61932,3.637591 6.87342,3.22574 17.08626,7.43351 27.32203,12.09814 5.11771,2.33224 10.38174,4.8418 15.33681,7.45919 4.91099,2.59409 9.8389,5.46128 14.20348,8.55838 4.05877,2.88009 9.03656,6.93353 12.67386,12.17339 1.89466,2.72943 3.99097,6.58288 4.87051,11.30841 0.9329,5.01228 0.35278,10.30156 -1.92683,15.14237 -11.43355,24.77862 -26.77497,40.9997 -44.42727,51.32427 -17.38956,10.17091 -35.7501,13.87582 -52.48658,15.52462 -15.16145,1.49363 -34.31629,1.476 -45.99138,2.35684 -13.46981,1.01626 -23.59855,3.25125 -30.95428,8.20357 -3.13884,2.06606 -4.8249,4.04127 -5.64863,5.65894 -0.86898,1.70653 -1.3153,4.04089 -0.7769,7.31118 0.54934,3.3368 2.08444,7.32085 4.71387,11.84839 2.60859,4.49165 6.13604,9.25056 10.3722,14.14416 8.49255,9.81059 19.42332,19.69833 30.59826,28.81909 11.14725,9.09815 22.33542,17.27133 31.30289,23.71946 a 4.4727769,4.4727769 90 0 1 -4.80022,7.54856 c -9.72825,-5.4435 -21.88578,-12.74642 -34.10347,-21.07576 -12.1733,-8.29909 -24.65816,-17.78758 -34.91772,-27.63065 -5.14205,-4.9333 -9.85732,-10.0809 -13.74065,-15.35547 -3.85787,-5.23998 -7.10936,-10.89276 -9.00286,-16.85006 -1.92673,-6.06185 -2.49154,-12.60843 -0.62303,-19.34781 1.87803,-6.77369 5.92663,-12.69594 11.85035,-17.72232 12.16682,-10.29442 27.60814,-14.3404 42.50194,-16.78542 17.08214,-2.80427 28.54337,-3.1463 44.96451,-6.10539 14.52286,-2.61702 27.2424,-6.65447 37.92166,-14.07004 10.39311,-7.21688 19.98022,-18.42542 27.38579,-37.06197 -1.40987,2.81644 -1.81172,6.05066 -1.34656,8.97425 0.40819,2.56557 1.43891,4.45274 1.6976,4.97904 0.57104,1.16172 -0.22821,0.52856 -2.85687,-0.71526 -2.60485,-1.23256 -5.81964,-2.60167 -10.11622,-4.21377 -4.17626,-1.56696 -8.75398,-3.12935 -13.62271,-4.68878 -10.11029,-3.23829 -19.32517,-5.80333 -27.91981,-8.29442 -3.67909,-1.06635 -8.15372,-2.37381 -11.36476,-3.59164 -0.90406,-0.34287 -1.95601,-0.7694 -3.02994,-1.2779 -1.01741,-0.48174 -2.46971,-1.23096 -4.05137,-2.31204 -1.24075,-0.84806 -4.34125,-3.08035 -7.05634,-7.03693 0,0 -2e-5,-1.7e-4 -2e-5,-1.7e-4 -1.43486,-2.09084 -3.38881,-5.57 -4.28433,-10.17669 -0.95932,-4.93487 -0.5656,-10.53939 1.70984,-15.89362 l 8e-5,-1.9e-4 c 4.76309,-12.578597 11.60084,-22.324147 17.63198,-30.02389 6.68713,-8.537237 10.54501,-12.583817 13.75393,-17.738552 1.27385,-2.046265 1.96842,-3.613925 2.31452,-4.799482 0.34009,-1.16498 0.34313,-1.944857 0.23614,-2.689378 -0.0311,-0.216471 -0.911,-4.827124 -2.98112,-10.391715 -0.13308,-0.608153 -0.28602,-1.248099 -0.46145,-1.92229 1.1872,3.431201 2.84939,5.353007 3.51299,5.967194 0.222,0.205474 1.12805,0.694587 -0.32016,-0.520982 -2.13564,-1.792569 -6.58875,-4.41052 -13.4148,-7.511122 C 384.92476,34.211414 366.92618,28.29948 346.9917,21.235267 337.41515,17.84161 327.49873,14.204672 318.29072,10.325538 c -9.10468,-3.8356 -18.41515,-8.2770452 -26.5621,-13.4850174 -4.12499,-2.6369196 -8.31509,-5.6989569 -12.19247,-9.2787026 -3.85417,-3.558318 -7.81753,-8.0122 -10.98445,-13.506871 -3.25477,-5.647086 -5.62764,-12.344959 -6.08204,-19.976533 -0.45625,-7.662581 1.11113,-14.801246 3.99354,-21.186023 2.56705,-5.663223 6.04098,-10.190515 9.55544,-13.78519 3.48503,-3.564565 7.33853,-6.546139 10.99047,-9.014168 7.37964,-4.987249 15.30085,-8.838301 23.57118,-12.268093 15.98412,-6.62877 35.82906,-12.66872 53.48118,-18.21847 18.5825,-5.84225 35.35985,-11.31792 48.63646,-17.32516 6.52949,-2.95438 11.43681,-5.69894 14.7939,-8.08861 3.39794,-2.41874 4.18045,-3.76882 4.21067,-3.36228 -0.87102,2.14384 -1.45382,4.75589 -1.3685,7.68178 0.0849,2.91015 0.80904,5.38874 1.72475,7.3117 1.81693,3.81551 3.60991,4.47888 3.53119,4.51062 0.1543,-0.0622 -1.00201,-0.94301 -2.79681,-1.94343 -1.88489,-1.05063 -4.41233,-2.24273 -7.58949,-3.54997 -6.39338,-2.63055 -14.54124,-5.37526 -24.01405,-8.29043 -9.46447,-2.9126 -19.73562,-5.84088 -30.5477,-8.95225 -21.21283,-6.10437 -44.3747,-12.86179 -63.02816,-20.59295 -9.3095,-3.85844 -18.34175,-8.2959 -25.73963,-13.51396 -3.73543,-2.63477 -7.42994,-5.72912 -10.59768,-9.37898 -3.1787,-3.66249 -6.1564,-8.26753 -7.80295,-13.8525 -2.0229,-6.8014 -1.54269,-13.72868 1.06842,-19.8857 2.46809,-5.81978 6.51751,-10.24422 10.32731,-13.43958 3.88262,-3.25644 8.33784,-5.92591 12.85661,-8.15549 4.57239,-2.25604 9.60657,-4.25503 14.89691,-6.03695 10.54995,-3.55348 22.88402,-6.49872 36.03862,-8.84863 13.20933,-2.35969 27.57351,-4.17711 42.29257,-5.39459 29.38583,-2.43064 60.79836,-2.52088 88.20748,0.43463 13.72256,1.4797 26.66862,3.7466 38.03627,6.98593 11.17794,3.18526 21.63806,7.53439 29.66284,13.67503 l 3.1254,20.38824 -20.38824,3.1254 z"
         style="fill:#000000;fill-opacity:1;fill-rule:nonzero;stroke:none;stroke-width:1px;stroke-linecap:butt;stroke-linejoin:miter;stroke-opacity:1" />
      <rect
         y="579.61084"
         x="991.96979"
         height="12.121831"
         width="2.0203052"
         id="rect4259"
         style="opacity:0.92000002;fill:#ffffff;fill-opacity:1;fill-rule:nonzero;stroke:none;stroke-width:39.70000076;stroke-linecap:square;stroke-linejoin:miter;stroke-miterlimit:4;stroke-dasharray:none" />
      <path
         sodipodi:nodetypes="cccc"
         inkscape:connector-curvature="0"
         inkscape:original-d="M -117.79784,847.82608 11.384629,675.85367 215.42067,567.71277 297.04643,341.79259"
         inkscape:path-effect="#path-effect4313-3"
         id="path4311-6"
         d="m -96.123393,864.10752 0.769742,-1.02471 L -13.599741,751.091 27.71305,694.45151 225.31456,586.38023 a 20.005288,22.091887 83.132912 0 0 9.97626,-11.4883 l 76.48594,-220.34238 2.37606,-6.57636 6.1806,-17.10639 -34.21278,-12.3612 -6.1806,17.10639 -2.37606,6.57636 L 198.51339,552.64553 0.07331662,654.5119 a 19.88218,26.434614 12.546816 0 0 -8.00095312,6.83476 l -45.9879565,59.45982 -84.786957,109.71345 -0.76974,1.02471 -16.28144,21.67445 43.3489,32.56288 16.281437,-21.67445 z"
         style="fill:#641010;fill-opacity:1;fill-rule:evenodd;stroke:none;stroke-width:1.31677794px;stroke-linecap:butt;stroke-linejoin:miter;stroke-opacity:1" />
      <path
         inkscape:original-d="m 284.7784,370.16649 c 77.87922,-10 118.55483,-17.52059 150.09112,-41.66191 l 85.95699,135.64684 114.62233,232.52624 163.03421,196.88619"
         inkscape:path-effect="#path-effect4315-7"
         sodipodi:nodetypes="ccccc"
         inkscape:connector-curvature="0"
         id="path4307-5"
         d="m 289.92477,410.24599 c 38.44969,-8.09217 69.77326,-15.9111 94.97405,-25.62119 25.85643,-9.96271 46.19679,-22.22622 62.97917,-39.127 l -31.08534,-5.53823 14.42878,17.74698 68.39081,117.39644 109.05769,234.77516 a 21.187536,5.5166886 42.471899 0 0 3.78364,5.84105 l 158.41618,200.71021 50.47886,4.74774 4.74774,-50.47886 L 660.28555,679.75665 542.22754,453.60192 a 4.0089329,0.18175817 63.294711 0 0 -1.24689,-2.22182 L 462.8333,337.67466 452.94639,317.04959 a 18.559422,25.239259 63.773442 0 0 -31.08534,-5.53823 c -14.57281,7.28454 -30.70061,10.76398 -52.35475,13.1409 -23.10608,2.53629 -49.82955,3.57614 -89.87427,5.43473 l 10.29274,80.159 z"
         style="fill:#500b0b;fill-opacity:0.99086758;fill-rule:nonzero;stroke:none;stroke-width:1.31677794px;stroke-linecap:butt;stroke-linejoin:miter;stroke-opacity:1" />
      <path
         sodipodi:nodetypes="cccc"
         inkscape:connector-curvature="0"
         inkscape:original-d="M -154.18335,843.73677 -9.1850776,662.58018 184.74944,544.33775 294.94663,329.84614"
         inkscape:path-effect="#path-effect4313"
         id="path4311"
         d="M -145.01864,851.07223 -79.471365,771.52366 0.31316825,673.56216 193.22085,558.23212 a 15.224682,17.072393 1.1851161 0 0 6.00328,-6.45786 l 108.69319,-207.37261 3.20775,-6.24368 8.31183,-16.17844 -32.35688,-16.62366 -8.31183,16.17844 -3.20775,6.24368 -103.28818,205.1557 -188.901711,117.4366 a 11.742504,15.591001 85.637169 0 0 -3.720134,3.27378 l -79.738545,101.37787 -63.25993,81.37937 a 11.738868,11.738868 90 0 0 18.32942,14.67092 z"
         style="fill:#5c2222;fill-opacity:1;fill-rule:evenodd;stroke:none;stroke-width:1.31677794px;stroke-linecap:butt;stroke-linejoin:miter;stroke-opacity:1" />
      <path
         inkscape:original-d="m 317.88502,327.76083 c 80.73636,0 51.41197,-20.37773 132.94826,-25.94762 l 71.67127,155.64683 126.74416,224.44502 197.3794,221.12986"
         inkscape:path-effect="#path-effect4315"
         sodipodi:nodetypes="ccccc"
         inkscape:connector-curvature="0"
         id="path4307"
         d="m 317.88502,339.60557 c 20.6188,-0.0733 34.79447,-1.43952 45.6965,-3.72372 11.06245,-2.3178 18.41341,-5.50978 25.13183,-8.59532 7.15779,-3.28733 13.42676,-6.36393 24.15099,-9.05047 7.42047,-1.60578 17.0769,-3.05376 30.45978,-4.06308 l 65.64361,149.52041 a 2.7092544,0.15792595 59.574802 0 0 0.55993,1.0947 L 633.60999,690.7362 a 16.985285,7.2269628 31.348424 0 0 2.24,3.12849 l 187.90817,214.94035 7.27473,8.1501 A 20.904145,20.904145 90 0 0 862.22333,889.1147 L 854.9486,880.96461 663.81551,671.22719 535.67051,450.45772 461.59344,296.85844 a 12.167582,11.609978 74.340246 0 0 -11.56751,-6.86382 c -18.73919,1.509 -32.0964,3.80304 -42.46626,6.56502 -12.95293,3.07159 -21.02026,6.80613 -28.15467,9.90529 -6.23149,2.70694 -11.78966,4.95388 -20.48093,6.63278 -8.85351,1.71023 -21.29092,2.8921 -41.03905,2.81838 l 0,23.68948 z"
         style="fill:#431f1f;fill-opacity:1;fill-rule:evenodd;stroke:none;stroke-width:1.31677794px;stroke-linecap:butt;stroke-linejoin:miter;stroke-opacity:1" />
    </g>
  </g>
</svg>
