<?xml version="1.0" encoding="UTF-8" standalone="no"?>
<!-- Created with Inkscape (http://www.inkscape.org/) -->

<svg
   width="36in"
   height="8in"
   viewBox="0 0 914.39999 203.2"
   version="1.1"
   id="svg5"
   inkscape:version="1.2.1 (9c6d41e410, 2022-07-14, custom)"
   sodipodi:docname="spiral-blinds.svg"
   xmlns:inkscape="http://www.inkscape.org/namespaces/inkscape"
   xmlns:sodipodi="http://sodipodi.sourceforge.net/DTD/sodipodi-0.dtd"
   xmlns="http://www.w3.org/2000/svg"
   xmlns:svg="http://www.w3.org/2000/svg">
  <sodipodi:namedview
     id="namedview7"
     pagecolor="#ffffff"
     bordercolor="#666666"
     borderopacity="1.0"
     inkscape:showpageshadow="2"
     inkscape:pageopacity="0.0"
     inkscape:pagecheckerboard="0"
     inkscape:deskcolor="#d1d1d1"
     inkscape:document-units="mm"
     showgrid="false"
     showguides="true"
     inkscape:zoom="0.85969466"
     inkscape:cx="216.93749"
     inkscape:cy="322.78902"
     inkscape:window-width="1896"
     inkscape:window-height="1012"
     inkscape:window-x="0"
     inkscape:window-y="0"
     inkscape:window-maximized="1"
     inkscape:current-layer="layer1">
    <sodipodi:guide
       position="0.0019058058,203.19752"
       orientation="-0.70710678,-0.70710678"
       id="guide511"
       inkscape:locked="false" />
    <sodipodi:guide
       position="1.6995977,186.39632"
       orientation="0.70710678,-0.70710678"
       id="guide513"
       inkscape:locked="false" />
  </sodipodi:namedview>
  <defs
     id="defs2" />
  <g
     inkscape:label="Layer 1"
     inkscape:groupmode="layer"
     id="layer1">
    <path
       sodipodi:type="spiral"
       style="fill:none;fill-rule:evenodd;stroke:#000000;stroke-width:8.00000022;stroke-linecap:square;stroke-linejoin:bevel;stroke-dasharray:none;stroke-dashoffset:0"
       id="path568"
       sodipodi:cx="18.40554"
       sodipodi:cy="25.809696"
       sodipodi:expansion="2"
       sodipodi:revolution="3"
       sodipodi:radius="61.403271"
       sodipodi:argument="-21.799412"
       sodipodi:t0="0"
       d="m 18.40554,25.809696 c -0.185829,-0.03607 0.0301,-0.374331 0.08126,-0.418597 0.586284,-0.507287 1.380856,0.204626 1.593131,0.743632 0.639675,1.624248 -0.936339,3.129714 -2.405718,3.442343 -3.103091,0.660222 -5.632173,-2.21137 -5.966232,-5.067518 -0.588211,-5.029113 4.029559,-8.893754 8.72903,-9.164797 7.406798,-0.42719 12.916464,6.390877 13.03804,13.390253 C 33.652884,38.973209 24.179648,46.436219 14.423861,46.320974 0.89956628,46.161211 -8.8245768,33.577745 -8.3846996,20.609135 -7.7990744,3.3435351 8.3497381,-8.9492727 24.987501,-8.0967013 46.449901,-6.9969003 61.618767,13.17239 60.265291,33.935573 58.562957,60.050441 33.918053,78.402678 8.5732297,76.459994 -22.649881,74.066738 -44.492756,44.491082 -41.8725,14.108434"
       transform="translate(46.168334,26.020585)" />
    <path
       sodipodi:type="spiral"
       style="fill:none;fill-rule:evenodd;stroke:#000000;stroke-width:6.56315;stroke-linecap:round;stroke-dasharray:none;stroke-dashoffset:0"
       id="path568-5"
       sodipodi:cx="18.40554"
       sodipodi:cy="25.809696"
       sodipodi:expansion="2"
       sodipodi:revolution="3"
       sodipodi:radius="61.403271"
       sodipodi:argument="-21.799412"
       sodipodi:t0="0"
       d="m 18.40554,25.809696 c -0.185829,-0.03607 0.0301,-0.374331 0.08126,-0.418597 0.586284,-0.507287 1.380856,0.204626 1.593131,0.743632 0.639675,1.624248 -0.936339,3.129714 -2.405718,3.442343 -3.103091,0.660222 -5.632173,-2.21137 -5.966232,-5.067518 -0.588211,-5.029113 4.029559,-8.893754 8.72903,-9.164797 7.406798,-0.42719 12.916464,6.390877 13.03804,13.390253 C 33.652884,38.973209 24.179648,46.436219 14.423861,46.320974 0.89956628,46.161211 -8.8245768,33.577745 -8.3846996,20.609135 -7.7990744,3.3435351 8.3497381,-8.9492727 24.987501,-8.0967013 46.449901,-6.9969003 61.618767,13.17239 60.265291,33.935573 58.562957,60.050441 33.918053,78.402678 8.5732297,76.459994 -22.649881,74.066738 -44.492756,44.491082 -41.8725,14.108434"
       transform="matrix(0.33290871,-0.54616968,0.54616968,0.33290871,161.72803,47.512829)" />
    <path
       sodipodi:type="spiral"
       style="fill:none;fill-rule:evenodd;stroke:#000000;stroke-width:5;stroke-linecap:round;stroke-dasharray:none;stroke-dashoffset:0"
       id="path568-5-3"
       sodipodi:cx="18.40554"
       sodipodi:cy="25.809696"
       sodipodi:expansion="2"
       sodipodi:revolution="3"
       sodipodi:radius="61.403271"
       sodipodi:argument="-21.799412"
       sodipodi:t0="0"
       d="m 18.40554,25.809696 c -0.185829,-0.03607 0.0301,-0.374331 0.08126,-0.418597 0.586284,-0.507287 1.380856,0.204626 1.593131,0.743632 0.639675,1.624248 -0.936339,3.129714 -2.405718,3.442343 -3.103091,0.660222 -5.632173,-2.21137 -5.966232,-5.067518 -0.588211,-5.029113 4.029559,-8.893754 8.72903,-9.164797 7.406798,-0.42719 12.916464,6.390877 13.03804,13.390253 C 33.652884,38.973209 24.179648,46.436219 14.423861,46.320974 0.89956628,46.161211 -8.8245768,33.577745 -8.3846996,20.609135 -7.7990744,3.3435351 8.3497381,-8.9492727 24.987501,-8.0967013 46.449901,-6.9969003 61.618767,13.17239 60.265291,33.935573 58.562957,60.050441 33.918053,78.402678 8.5732297,76.459994 -22.649881,74.066738 -44.492756,44.491082 -41.8725,14.108434"
       transform="matrix(-0.01468664,-0.44440232,0.44440232,-0.01468664,114.97637,40.90891)" />
    <path
       sodipodi:type="spiral"
       style="fill:none;fill-rule:evenodd;stroke:#000000;stroke-width:8.9959419;stroke-linecap:round;stroke-dasharray:none;stroke-dashoffset:0"
       id="path568-5-3-9"
       sodipodi:cx="18.40554"
       sodipodi:cy="25.809696"
       sodipodi:expansion="4"
       sodipodi:revolution="5"
       sodipodi:radius="61.403271"
       sodipodi:argument="-21.799412"
       sodipodi:t0="0.60000002"
       d="m 10.593506,24.293206 c -0.09269,-5.336545 4.818871,-9.234897 9.900791,-9.243517 7.227304,-0.01226 12.465597,6.662616 12.384001,13.569492 C 32.765114,38.199862 23.887312,45.098606 14.703173,44.882044 2.236563,44.588083 -6.6907965,32.999743 -6.2843441,21.01684 -5.7429928,5.0568915 9.1364098,-6.3182205 24.513697,-5.6558164 44.654176,-4.7882294 58.950467,14.040591 57.953961,33.486925 56.668102,58.579835 33.148766,76.328339 8.8747513,74.906534 -22.032106,73.096223 -43.824779,44.057641 -41.8725,14.108434"
       transform="matrix(0.39872114,0.19680084,-0.19680084,0.39872114,104.74012,156.98054)" />
    <path
       sodipodi:type="spiral"
       style="fill:none;fill-rule:evenodd;stroke:#000000;stroke-width:5.62246;stroke-linecap:round;stroke-dasharray:none;stroke-dashoffset:0"
       id="path568-5-3-6"
       sodipodi:cx="18.40554"
       sodipodi:cy="25.809696"
       sodipodi:expansion="2"
       sodipodi:revolution="3"
       sodipodi:radius="61.403271"
       sodipodi:argument="-21.799412"
       sodipodi:t0="0"
       d="m 18.40554,25.809696 c -0.185829,-0.03607 0.0301,-0.374331 0.08126,-0.418597 0.586284,-0.507287 1.380856,0.204626 1.593131,0.743632 0.639675,1.624248 -0.936339,3.129714 -2.405718,3.442343 -3.103091,0.660222 -5.632173,-2.21137 -5.966232,-5.067518 -0.588211,-5.029113 4.029559,-8.893754 8.72903,-9.164797 7.406798,-0.42719 12.916464,6.390877 13.03804,13.390253 C 33.652884,38.973209 24.179648,46.436219 14.423861,46.320974 0.89956628,46.161211 -8.8245768,33.577745 -8.3846996,20.609135 -7.7990744,3.3435351 8.3497381,-8.9492727 24.987501,-8.0967013 46.449901,-6.9969003 61.618767,13.17239 60.265291,33.935573 58.562957,60.050441 33.918053,78.402678 8.5732297,76.459994 -22.649881,74.066738 -44.492756,44.491082 -41.8725,14.108434"
       transform="matrix(0.42834648,-0.11928291,0.11928291,0.42834648,99.865648,113.56827)" />
    <path
       sodipodi:type="spiral"
       style="fill:none;fill-rule:evenodd;stroke:#000000;stroke-width:8.1378;stroke-linecap:round;stroke-dasharray:none;stroke-dashoffset:0"
       id="path568-5-3-6-9"
       sodipodi:cx="18.40554"
       sodipodi:cy="25.809696"
       sodipodi:expansion="2"
       sodipodi:revolution="3"
       sodipodi:radius="61.403271"
       sodipodi:argument="-21.799412"
       sodipodi:t0="0"
       d="m 18.40554,25.809696 c -0.185829,-0.03607 0.0301,-0.374331 0.08126,-0.418597 0.586284,-0.507287 1.380856,0.204626 1.593131,0.743632 0.639675,1.624248 -0.936339,3.129714 -2.405718,3.442343 -3.103091,0.660222 -5.632173,-2.21137 -5.966232,-5.067518 -0.588211,-5.029113 4.029559,-8.893754 8.72903,-9.164797 7.406798,-0.42719 12.916464,6.390877 13.03804,13.390253 C 33.652884,38.973209 24.179648,46.436219 14.423861,46.320974 0.89956628,46.161211 -8.8245768,33.577745 -8.3846996,20.609135 -7.7990744,3.3435351 8.3497381,-8.9492727 24.987501,-8.0967013 46.449901,-6.9969003 61.618767,13.17239 60.265291,33.935573 58.562957,60.050441 33.918053,78.402678 8.5732297,76.459994 -22.649881,74.066738 -44.492756,44.491082 -41.8725,14.108434"
       transform="matrix(0.34086041,0.14041668,0.14041668,-0.34086041,15.831307,187.62398)" />
    <path
       sodipodi:type="spiral"
       style="fill:none;fill-rule:evenodd;stroke:#000000;stroke-width:11.8767;stroke-linecap:round;stroke-dasharray:none;stroke-dashoffset:0"
       id="path568-5-3-5"
       sodipodi:cx="18.40554"
       sodipodi:cy="25.809696"
       sodipodi:expansion="2"
       sodipodi:revolution="3"
       sodipodi:radius="61.403271"
       sodipodi:argument="-21.799412"
       sodipodi:t0="0"
       d="m 18.40554,25.809696 c -0.185829,-0.03607 0.0301,-0.374331 0.08126,-0.418597 0.586284,-0.507287 1.380856,0.204626 1.593131,0.743632 0.639675,1.624248 -0.936339,3.129714 -2.405718,3.442343 -3.103091,0.660222 -5.632173,-2.21137 -5.966232,-5.067518 -0.588211,-5.029113 4.029559,-8.893754 8.72903,-9.164797 7.406798,-0.42719 12.916464,6.390877 13.03804,13.390253 C 33.652884,38.973209 24.179648,46.436219 14.423861,46.320974 0.89956628,46.161211 -8.8245768,33.577745 -8.3846996,20.609135 -7.7990744,3.3435351 8.3497381,-8.9492727 24.987501,-8.0967013 46.449901,-6.9969003 61.618767,13.17239 60.265291,33.935573 58.562957,60.050441 33.918053,78.402678 8.5732297,76.459994 -22.649881,74.066738 -44.492756,44.491082 -41.8725,14.108434"
       transform="matrix(-0.20504489,-0.18399774,-0.18399774,0.20504489,32.291748,127.73919)" />
    <path
       sodipodi:type="spiral"
       style="fill:none;fill-rule:evenodd;stroke:#000000;stroke-width:6.17067;stroke-linecap:round;stroke-dasharray:none;stroke-dashoffset:0"
       id="path568-5-3-5-3"
       sodipodi:cx="18.40554"
       sodipodi:cy="25.809696"
       sodipodi:expansion="2"
       sodipodi:revolution="2.4743948"
       sodipodi:radius="55.613781"
       sodipodi:argument="-21.799412"
       sodipodi:t0="0"
       d="m 18.40554,25.809696 c -0.247406,-0.04803 0.04007,-0.498369 0.108185,-0.557304 0.780554,-0.675381 1.838415,0.272432 2.121031,0.990043 0.851637,2.162458 -1.246605,4.166774 -3.202877,4.582996 C 13.300548,31.704424 9.9334308,27.881303 9.4886783,24.078742 8.7055572,17.383183 14.853471,12.237956 21.110157,11.877099 30.97127,11.308356 38.306619,20.385657 38.46848,29.704344 38.70524,43.335069 26.092955,53.271019 13.104492,53.117586 -4.9012098,52.904885 -17.847543,36.151764 -17.261908,18.885878 -16.48223,-4.1008475 5.0176494,-20.466998 27.168498,-19.331918 52.191193,-18.049677 71.619037,3.1511654 73.992851,27.525363"
       transform="matrix(0.13804993,-0.23841306,-0.23841306,-0.13804993,15.362785,110.16259)" />
    <path
       sodipodi:type="spiral"
       style="fill:none;fill-rule:evenodd;stroke:#000000;stroke-width:6.17067;stroke-linecap:round;stroke-dasharray:none;stroke-dashoffset:0"
       id="path568-5-3-5-3-6"
       sodipodi:cx="18.40554"
       sodipodi:cy="25.809696"
       sodipodi:expansion="2"
       sodipodi:revolution="2.3691952"
       sodipodi:radius="50.985416"
       sodipodi:argument="-21.799412"
       sodipodi:t0="0"
       d="m 18.40554,25.809696 c -0.247406,-0.04803 0.04007,-0.498369 0.108185,-0.557303 0.780554,-0.675381 1.838415,0.272431 2.12103,0.990042 0.851637,2.162457 -1.246604,4.166773 -3.202876,4.582994 C 13.30055,31.704422 9.9334339,27.881302 9.4886816,24.078742 8.7055608,17.383186 14.853472,12.237961 21.110156,11.877104 30.971265,11.308361 38.306611,20.385659 38.468473,29.704342 38.705233,43.335062 26.092952,53.271009 13.104494,53.117576 -4.9012012,52.904875 -17.84753,36.15176 -17.261895,18.885881 c 0.779678,-22.9867174 22.2795494,-39.352862 44.430389,-38.217783 12.27878,0.629204 23.955039,6.246442 32.430644,15.0982933"
       transform="matrix(0.07659117,-0.26463628,-0.26463628,-0.07659117,77.219614,193.2028)" />
    <path
       sodipodi:type="spiral"
       style="fill:none;fill-rule:evenodd;stroke:#000000;stroke-width:9.63492909;stroke-linecap:round;stroke-dasharray:none;stroke-dashoffset:0"
       id="path568-3"
       sodipodi:cx="18.40554"
       sodipodi:cy="25.809696"
       sodipodi:expansion="3"
       sodipodi:revolution="3"
       sodipodi:radius="61.403271"
       sodipodi:argument="-21.799412"
       sodipodi:t0="0.40000001"
       d="m 17.925645,21.909298 c 2.8094,-1.538819 6.115364,0.411084 7.361174,3.053742 2.238255,4.747867 -1.028301,10.058341 -5.516853,11.936155 C 12.357676,40.000173 4.340287,34.911597 1.6688729,27.868936 -2.472473,16.951087 5.0280593,5.4161385 15.448405,1.7753011 30.828187,-3.5983482 46.799545,6.988611 51.599832,21.725549 58.41197,42.638894 43.979602,64.073709 23.871852,70.237664 -3.7619532,78.708703 -31.795463,59.587441 -39.541492,32.939362 -41.315021,26.838023 -42.087832,20.456936 -41.8725,14.108434"
       transform="matrix(-0.13840666,0.7132178,0.7132178,0.13840666,35.732336,131.55911)"
       inkscape:transform-center-x="7.1457565"
       inkscape:transform-center-y="6.1089446" />
    <path
       sodipodi:type="spiral"
       style="fill:none;fill-rule:evenodd;stroke:#000000;stroke-width:8.85407;stroke-linecap:round;stroke-dasharray:none;stroke-dashoffset:0"
       id="path568-7"
       sodipodi:cx="18.40554"
       sodipodi:cy="25.809696"
       sodipodi:expansion="3"
       sodipodi:revolution="3"
       sodipodi:radius="61.403271"
       sodipodi:argument="-21.799412"
       sodipodi:t0="0.30000001"
       d="m 16.903158,26.510725 c -1.24627,-0.940464 -0.891023,-2.817283 0.03986,-3.835372 1.938443,-2.12003 5.31004,-1.386224 7.117578,0.49563 3.314241,3.450505 1.994726,8.98603 -1.335296,11.89645 C 17.143776,39.945656 8.6459538,37.786256 4.2699551,32.405517 -2.5912816,23.968923 0.70917148,11.581345 8.8485003,5.3278843 20.969375,-3.9846054 38.303205,0.80502924 46.895164,12.516122 59.176321,29.2557 52.502432,52.721298 36.301115,64.161925 13.903186,79.978316 -17.008706,70.978166 -31.857295,49.262891 -38.878997,38.994024 -42.293273,26.513828 -41.8725,14.108434"
       transform="matrix(0.49493901,0.27191013,0.27191013,-0.49493901,119.06021,95.457735)" />
    <path
       id="rect4029"
       style="fill:none;stroke:#000000;stroke-width:8;stroke-linecap:square;stop-color:#000000"
       d="M 4.0306792,43.882826 V 3.9792633 H 365.49723 V 205.62628"
       sodipodi:nodetypes="cccc" />
    <circle
       style="fill:#ffffff;stroke:#f60000;stroke-width:0.0233432;stop-color:#000000"
       id="path399"
       cx="4.0107107"
       cy="4.1007056"
       r="2" />
    <circle
       style="fill:#ffffff;stroke:#f60000;stroke-width:0.0233432;stop-color:#000000"
       id="path399-2"
       cx="10.925634"
       cy="4.1007056"
       r="2" />
    <circle
       style="fill:#000000;stroke:#f60000;stroke-width:0.0233432;stop-color:#000000"
       id="path399-27"
       cx="4.0107107"
       cy="199.12448"
       r="2" />
    <circle
       style="fill:#000000;stroke:#f60000;stroke-width:0.0233432;stop-color:#000000"
       id="path399-2-0"
       cx="10.925634"
       cy="199.12448"
       r="2" />
  </g>
</svg>
